<svg width="800" height="600" viewBox="0 0 800 600" fill="none" xmlns="http://www.w3.org/2000/svg">
<g clip-path="url(#clip0)">
<rect width="800" height="600" fill="white"/>
<path d="M533 104L533 122L154 122L154 104L533 104Z" fill="#6C63FF" fill-opacity="0.66"/>
<path d="M157.24 45.812H162.352V80.66H157.24V45.812ZM183.934 69.716C184.726 69.716 185.374 69.656 185.878 69.536C186.406 69.392 186.826 69.212 187.138 68.996C187.45 68.756 187.666 68.48 187.786 68.168C187.906 67.856 187.966 67.508 187.966 67.124C187.966 66.308 187.582 65.636 186.814 65.108C186.046 64.556 184.726 63.968 182.854 63.344C182.038 63.056 181.222 62.732 180.406 62.372C179.59 61.988 178.858 61.52 178.21 60.968C177.562 60.392 177.034 59.708 176.626 58.916C176.218 58.1 176.014 57.116 176.014 55.964C176.014 54.812 176.23 53.78 176.662 52.868C177.094 51.932 177.706 51.14 178.498 50.492C179.29 49.844 180.25 49.352 181.378 49.016C182.506 48.656 183.778 48.476 185.194 48.476C186.874 48.476 188.326 48.656 189.55 49.016C190.774 49.376 191.782 49.772 192.574 50.204L190.954 54.632C190.258 54.272 189.478 53.96 188.614 53.696C187.774 53.408 186.754 53.264 185.554 53.264C184.21 53.264 183.238 53.456 182.638 53.84C182.062 54.2 181.774 54.764 181.774 55.532C181.774 55.988 181.882 56.372 182.098 56.684C182.314 56.996 182.614 57.284 182.998 57.548C183.406 57.788 183.862 58.016 184.366 58.232C184.894 58.424 185.47 58.628 186.094 58.844C187.39 59.324 188.518 59.804 189.478 60.284C190.438 60.74 191.23 61.28 191.854 61.904C192.502 62.528 192.982 63.26 193.294 64.1C193.606 64.94 193.762 65.96 193.762 67.16C193.762 69.488 192.946 71.3 191.314 72.596C189.682 73.868 187.222 74.504 183.934 74.504C182.83 74.504 181.834 74.432 180.946 74.288C180.058 74.168 179.266 74.012 178.57 73.82C177.898 73.628 177.31 73.424 176.806 73.208C176.326 72.992 175.918 72.788 175.582 72.596L177.166 68.132C177.91 68.54 178.822 68.912 179.902 69.248C181.006 69.56 182.35 69.716 183.934 69.716ZM198.083 49.052H203.699V74H198.083V49.052ZM216.278 69.716C217.07 69.716 217.718 69.656 218.222 69.536C218.75 69.392 219.17 69.212 219.482 68.996C219.794 68.756 220.01 68.48 220.13 68.168C220.25 67.856 220.31 67.508 220.31 67.124C220.31 66.308 219.926 65.636 219.158 65.108C218.39 64.556 217.07 63.968 215.198 63.344C214.382 63.056 213.566 62.732 212.75 62.372C211.934 61.988 211.202 61.52 210.554 60.968C209.906 60.392 209.378 59.708 208.97 58.916C208.562 58.1 208.358 57.116 208.358 55.964C208.358 54.812 208.574 53.78 209.006 52.868C209.438 51.932 210.05 51.14 210.842 50.492C211.634 49.844 212.594 49.352 213.722 49.016C214.85 48.656 216.122 48.476 217.538 48.476C219.218 48.476 220.67 48.656 221.894 49.016C223.118 49.376 224.126 49.772 224.918 50.204L223.298 54.632C222.602 54.272 221.822 53.96 220.958 53.696C220.118 53.408 219.098 53.264 217.898 53.264C216.554 53.264 215.582 53.456 214.982 53.84C214.406 54.2 214.118 54.764 214.118 55.532C214.118 55.988 214.226 56.372 214.442 56.684C214.658 56.996 214.958 57.284 215.342 57.548C215.75 57.788 216.206 58.016 216.71 58.232C217.238 58.424 217.814 58.628 218.438 58.844C219.734 59.324 220.862 59.804 221.822 60.284C222.782 60.74 223.574 61.28 224.198 61.904C224.846 62.528 225.326 63.26 225.638 64.1C225.95 64.94 226.106 65.96 226.106 67.16C226.106 69.488 225.29 71.3 223.658 72.596C222.026 73.868 219.566 74.504 216.278 74.504C215.174 74.504 214.178 74.432 213.29 74.288C212.402 74.168 211.61 74.012 210.914 73.82C210.242 73.628 209.654 73.424 209.15 73.208C208.67 72.992 208.262 72.788 207.926 72.596L209.51 68.132C210.254 68.54 211.166 68.912 212.246 69.248C213.35 69.56 214.694 69.716 216.278 69.716ZM248.228 49.052V53.84H240.704V74H235.088V53.84H227.564V49.052H248.228ZM251.837 74V49.052H268.685V53.768H257.453V58.664H267.425V63.272H257.453V69.284H269.513V74H251.837ZM280.293 49.052C280.725 49.844 281.217 50.828 281.769 52.004C282.345 53.156 282.933 54.416 283.533 55.784C284.157 57.128 284.769 58.508 285.369 59.924C285.969 61.34 286.533 62.672 287.061 63.92C287.589 62.672 288.153 61.34 288.753 59.924C289.353 58.508 289.953 57.128 290.553 55.784C291.177 54.416 291.765 53.156 292.317 52.004C292.893 50.828 293.397 49.844 293.829 49.052H298.941C299.181 50.708 299.397 52.568 299.589 54.632C299.805 56.672 299.985 58.808 300.129 61.04C300.297 63.248 300.441 65.468 300.561 67.7C300.705 69.932 300.825 72.032 300.921 74H295.449C295.377 71.576 295.281 68.936 295.161 66.08C295.041 63.224 294.861 60.344 294.621 57.44C294.189 58.448 293.709 59.564 293.181 60.788C292.653 62.012 292.125 63.236 291.597 64.46C291.093 65.684 290.601 66.86 290.121 67.988C289.641 69.092 289.233 70.04 288.897 70.832H284.973C284.637 70.04 284.229 69.092 283.749 67.988C283.269 66.86 282.765 65.684 282.237 64.46C281.733 63.236 281.217 62.012 280.689 60.788C280.161 59.564 279.681 58.448 279.249 57.44C279.009 60.344 278.829 63.224 278.709 66.08C278.589 68.936 278.493 71.576 278.421 74H272.949C273.045 72.032 273.153 69.932 273.273 67.7C273.417 65.468 273.561 63.248 273.705 61.04C273.873 58.808 274.053 56.672 274.245 54.632C274.461 52.568 274.689 50.708 274.929 49.052H280.293ZM314.626 49.052H320.242V74H314.626V49.052ZM342.757 74C341.149 71.144 339.409 68.324 337.537 65.54C335.665 62.756 333.673 60.128 331.561 57.656V74H326.017V49.052H330.589C331.381 49.844 332.257 50.816 333.217 51.968C334.177 53.12 335.149 54.356 336.133 55.676C337.141 56.972 338.137 58.328 339.121 59.744C340.105 61.136 341.029 62.48 341.893 63.776V49.052H347.473V74H342.757ZM353.228 74V49.052H369.932V53.768H358.844V58.988H368.708V63.704H358.844V74H353.228ZM378.334 61.508C378.334 62.732 378.478 63.836 378.766 64.82C379.078 65.804 379.51 66.656 380.062 67.376C380.638 68.072 381.334 68.612 382.15 68.996C382.966 69.38 383.902 69.572 384.958 69.572C385.99 69.572 386.914 69.38 387.73 68.996C388.57 68.612 389.266 68.072 389.818 67.376C390.394 66.656 390.826 65.804 391.114 64.82C391.426 63.836 391.582 62.732 391.582 61.508C391.582 60.284 391.426 59.18 391.114 58.196C390.826 57.188 390.394 56.336 389.818 55.64C389.266 54.92 388.57 54.368 387.73 53.984C386.914 53.6 385.99 53.408 384.958 53.408C383.902 53.408 382.966 53.612 382.15 54.02C381.334 54.404 380.638 54.956 380.062 55.676C379.51 56.372 379.078 57.224 378.766 58.232C378.478 59.216 378.334 60.308 378.334 61.508ZM397.378 61.508C397.378 63.644 397.054 65.528 396.406 67.16C395.782 68.768 394.918 70.124 393.814 71.228C392.71 72.308 391.39 73.124 389.854 73.676C388.342 74.228 386.71 74.504 384.958 74.504C383.254 74.504 381.646 74.228 380.134 73.676C378.622 73.124 377.302 72.308 376.174 71.228C375.046 70.124 374.158 68.768 373.51 67.16C372.862 65.528 372.538 63.644 372.538 61.508C372.538 59.372 372.874 57.5 373.546 55.892C374.218 54.26 375.118 52.892 376.246 51.788C377.398 50.684 378.718 49.856 380.206 49.304C381.718 48.752 383.302 48.476 384.958 48.476C386.662 48.476 388.27 48.752 389.782 49.304C391.294 49.856 392.614 50.684 393.742 51.788C394.87 52.892 395.758 54.26 396.406 55.892C397.054 57.5 397.378 59.372 397.378 61.508ZM409.368 48.764C413.112 48.764 415.98 49.436 417.972 50.78C419.964 52.1 420.96 54.164 420.96 56.972C420.96 58.724 420.552 60.152 419.736 61.256C418.944 62.336 417.792 63.188 416.28 63.812C416.784 64.436 417.312 65.156 417.864 65.972C418.416 66.764 418.956 67.604 419.484 68.492C420.036 69.356 420.564 70.268 421.068 71.228C421.572 72.164 422.04 73.088 422.472 74H416.172C415.716 73.184 415.248 72.356 414.768 71.516C414.312 70.676 413.832 69.86 413.328 69.068C412.848 68.276 412.368 67.532 411.888 66.836C411.408 66.116 410.928 65.468 410.448 64.892H407.676V74H402.06V49.412C403.284 49.172 404.544 49.004 405.84 48.908C407.16 48.812 408.336 48.764 409.368 48.764ZM409.692 53.552C409.284 53.552 408.912 53.564 408.576 53.588C408.264 53.612 407.964 53.636 407.676 53.66V60.428H409.26C411.372 60.428 412.884 60.164 413.796 59.636C414.708 59.108 415.164 58.208 415.164 56.936C415.164 55.712 414.696 54.848 413.76 54.344C412.848 53.816 411.492 53.552 409.692 53.552ZM432.695 49.052C433.127 49.844 433.619 50.828 434.171 52.004C434.747 53.156 435.335 54.416 435.935 55.784C436.559 57.128 437.171 58.508 437.771 59.924C438.371 61.34 438.935 62.672 439.463 63.92C439.991 62.672 440.555 61.34 441.155 59.924C441.755 58.508 442.355 57.128 442.955 55.784C443.579 54.416 444.167 53.156 444.719 52.004C445.295 50.828 445.799 49.844 446.231 49.052H451.343C451.583 50.708 451.799 52.568 451.991 54.632C452.207 56.672 452.387 58.808 452.531 61.04C452.699 63.248 452.843 65.468 452.963 67.7C453.107 69.932 453.227 72.032 453.323 74H447.851C447.779 71.576 447.683 68.936 447.563 66.08C447.443 63.224 447.263 60.344 447.023 57.44C446.591 58.448 446.111 59.564 445.583 60.788C445.055 62.012 444.527 63.236 443.999 64.46C443.495 65.684 443.003 66.86 442.523 67.988C442.043 69.092 441.635 70.04 441.299 70.832H437.375C437.039 70.04 436.631 69.092 436.151 67.988C435.671 66.86 435.167 65.684 434.639 64.46C434.135 63.236 433.619 62.012 433.091 60.788C432.563 59.564 432.083 58.448 431.651 57.44C431.411 60.344 431.231 63.224 431.111 66.08C430.991 68.936 430.895 71.576 430.823 74H425.351C425.447 72.032 425.555 69.932 425.675 67.7C425.819 65.468 425.963 63.248 426.107 61.04C426.275 58.808 426.455 56.672 426.647 54.632C426.863 52.568 427.091 50.708 427.331 49.052H432.695ZM475.084 74C474.82 73.136 474.52 72.248 474.184 71.336C473.872 70.424 473.56 69.512 473.248 68.6H463.528C463.216 69.512 462.892 70.424 462.556 71.336C462.244 72.248 461.956 73.136 461.692 74H455.86C456.796 71.312 457.684 68.828 458.524 66.548C459.364 64.268 460.18 62.12 460.972 60.104C461.788 58.088 462.58 56.18 463.348 54.38C464.14 52.556 464.956 50.78 465.796 49.052H471.16C471.976 50.78 472.78 52.556 473.572 54.38C474.364 56.18 475.156 58.088 475.948 60.104C476.764 62.12 477.592 64.268 478.432 66.548C479.272 68.828 480.16 71.312 481.096 74H475.084ZM468.352 54.704C468.232 55.064 468.052 55.556 467.812 56.18C467.572 56.804 467.296 57.524 466.984 58.34C466.672 59.156 466.324 60.056 465.94 61.04C465.58 62.024 465.208 63.056 464.824 64.136H471.916C471.532 63.056 471.16 62.024 470.8 61.04C470.44 60.056 470.092 59.156 469.756 58.34C469.444 57.524 469.168 56.804 468.928 56.18C468.688 55.556 468.496 55.064 468.352 54.704ZM491.797 69.716C492.589 69.716 493.237 69.656 493.741 69.536C494.269 69.392 494.689 69.212 495.001 68.996C495.313 68.756 495.529 68.48 495.649 68.168C495.769 67.856 495.829 67.508 495.829 67.124C495.829 66.308 495.445 65.636 494.677 65.108C493.909 64.556 492.589 63.968 490.717 63.344C489.901 63.056 489.085 62.732 488.269 62.372C487.453 61.988 486.721 61.52 486.073 60.968C485.425 60.392 484.897 59.708 484.489 58.916C484.081 58.1 483.877 57.116 483.877 55.964C483.877 54.812 484.093 53.78 484.525 52.868C484.957 51.932 485.569 51.14 486.361 50.492C487.153 49.844 488.113 49.352 489.241 49.016C490.369 48.656 491.641 48.476 493.057 48.476C494.737 48.476 496.189 48.656 497.413 49.016C498.637 49.376 499.645 49.772 500.437 50.204L498.817 54.632C498.121 54.272 497.341 53.96 496.477 53.696C495.637 53.408 494.617 53.264 493.417 53.264C492.073 53.264 491.101 53.456 490.501 53.84C489.925 54.2 489.637 54.764 489.637 55.532C489.637 55.988 489.745 56.372 489.961 56.684C490.177 56.996 490.477 57.284 490.861 57.548C491.269 57.788 491.725 58.016 492.229 58.232C492.757 58.424 493.333 58.628 493.957 58.844C495.253 59.324 496.381 59.804 497.341 60.284C498.301 60.74 499.093 61.28 499.717 61.904C500.365 62.528 500.845 63.26 501.157 64.1C501.469 64.94 501.625 65.96 501.625 67.16C501.625 69.488 500.809 71.3 499.177 72.596C497.545 73.868 495.085 74.504 491.797 74.504C490.693 74.504 489.697 74.432 488.809 74.288C487.921 74.168 487.129 74.012 486.433 73.82C485.761 73.628 485.173 73.424 484.669 73.208C484.189 72.992 483.781 72.788 483.445 72.596L485.029 68.132C485.773 68.54 486.685 68.912 487.765 69.248C488.869 69.56 490.213 69.716 491.797 69.716ZM505.946 49.052H511.562V74H505.946V49.052ZM164.368 89.764C168.088 89.764 170.944 90.424 172.936 91.744C174.928 93.04 175.924 95.176 175.924 98.152C175.924 101.152 174.916 103.324 172.9 104.668C170.884 105.988 168.004 106.648 164.26 106.648H162.496V115H156.88V90.412C158.104 90.172 159.4 90.004 160.768 89.908C162.136 89.812 163.336 89.764 164.368 89.764ZM164.728 94.552C164.32 94.552 163.912 94.564 163.504 94.588C163.12 94.612 162.784 94.636 162.496 94.66V101.86H164.26C166.204 101.86 167.668 101.596 168.652 101.068C169.636 100.54 170.128 99.556 170.128 98.116C170.128 97.42 169.996 96.844 169.732 96.388C169.492 95.932 169.132 95.572 168.652 95.308C168.196 95.02 167.632 94.828 166.96 94.732C166.288 94.612 165.544 94.552 164.728 94.552ZM180.048 115V90.052H196.896V94.768H185.664V99.664H195.636V104.272H185.664V110.284H197.724V115H180.048ZM218.62 115C217.012 112.144 215.272 109.324 213.4 106.54C211.528 103.756 209.536 101.128 207.424 98.656V115H201.88V90.052H206.452C207.244 90.844 208.12 91.816 209.08 92.968C210.04 94.12 211.012 95.356 211.996 96.676C213.004 97.972 214 99.328 214.984 100.744C215.968 102.136 216.892 103.48 217.756 104.776V90.052H223.336V115H218.62ZM241.259 94.372C238.643 94.372 236.747 95.104 235.571 96.568C234.419 98.008 233.843 99.988 233.843 102.508C233.843 103.732 233.987 104.848 234.275 105.856C234.563 106.84 234.995 107.692 235.571 108.412C236.147 109.132 236.867 109.696 237.731 110.104C238.595 110.488 239.603 110.68 240.755 110.68C241.379 110.68 241.907 110.668 242.339 110.644C242.795 110.62 243.191 110.572 243.527 110.5V101.824H249.143V114.172C248.471 114.436 247.391 114.712 245.903 115C244.415 115.312 242.579 115.468 240.395 115.468C238.523 115.468 236.819 115.18 235.283 114.604C233.771 114.028 232.475 113.188 231.395 112.084C230.315 110.98 229.475 109.624 228.875 108.016C228.299 106.408 228.011 104.572 228.011 102.508C228.011 100.42 228.335 98.572 228.983 96.964C229.631 95.356 230.519 94 231.647 92.896C232.775 91.768 234.095 90.916 235.607 90.34C237.143 89.764 238.775 89.476 240.503 89.476C241.679 89.476 242.735 89.56 243.671 89.728C244.631 89.872 245.447 90.052 246.119 90.268C246.815 90.46 247.379 90.664 247.811 90.88C248.267 91.096 248.591 91.264 248.783 91.384L247.163 95.884C246.395 95.476 245.507 95.128 244.499 94.84C243.515 94.528 242.435 94.372 241.259 94.372ZM271.072 115C270.808 114.136 270.508 113.248 270.172 112.336C269.86 111.424 269.548 110.512 269.236 109.6H259.516C259.204 110.512 258.88 111.424 258.544 112.336C258.232 113.248 257.944 114.136 257.68 115H251.848C252.784 112.312 253.672 109.828 254.512 107.548C255.352 105.268 256.168 103.12 256.96 101.104C257.776 99.088 258.568 97.18 259.336 95.38C260.128 93.556 260.944 91.78 261.784 90.052H267.148C267.964 91.78 268.768 93.556 269.56 95.38C270.352 97.18 271.144 99.088 271.936 101.104C272.752 103.12 273.58 105.268 274.42 107.548C275.26 109.828 276.148 112.312 277.084 115H271.072ZM264.34 95.704C264.22 96.064 264.04 96.556 263.8 97.18C263.56 97.804 263.284 98.524 262.972 99.34C262.66 100.156 262.312 101.056 261.928 102.04C261.568 103.024 261.196 104.056 260.812 105.136H267.904C267.52 104.056 267.148 103.024 266.788 102.04C266.428 101.056 266.08 100.156 265.744 99.34C265.432 98.524 265.156 97.804 264.916 97.18C264.676 96.556 264.484 96.064 264.34 95.704ZM287.622 89.764C291.366 89.764 294.234 90.436 296.226 91.78C298.218 93.1 299.214 95.164 299.214 97.972C299.214 99.724 298.806 101.152 297.99 102.256C297.198 103.336 296.046 104.188 294.534 104.812C295.038 105.436 295.566 106.156 296.118 106.972C296.67 107.764 297.21 108.604 297.738 109.492C298.29 110.356 298.818 111.268 299.322 112.228C299.826 113.164 300.294 114.088 300.726 115H294.426C293.97 114.184 293.502 113.356 293.022 112.516C292.566 111.676 292.086 110.86 291.582 110.068C291.102 109.276 290.622 108.532 290.142 107.836C289.662 107.116 289.182 106.468 288.702 105.892H285.93V115H280.314V90.412C281.538 90.172 282.798 90.004 284.094 89.908C285.414 89.812 286.59 89.764 287.622 89.764ZM287.946 94.552C287.538 94.552 287.166 94.564 286.83 94.588C286.518 94.612 286.218 94.636 285.93 94.66V101.428H287.514C289.626 101.428 291.138 101.164 292.05 100.636C292.962 100.108 293.418 99.208 293.418 97.936C293.418 96.712 292.95 95.848 292.014 95.344C291.102 94.816 289.746 94.552 287.946 94.552ZM311.129 110.716C311.921 110.716 312.569 110.656 313.073 110.536C313.601 110.392 314.021 110.212 314.333 109.996C314.645 109.756 314.861 109.48 314.981 109.168C315.101 108.856 315.161 108.508 315.161 108.124C315.161 107.308 314.777 106.636 314.009 106.108C313.241 105.556 311.921 104.968 310.049 104.344C309.233 104.056 308.417 103.732 307.601 103.372C306.785 102.988 306.053 102.52 305.405 101.968C304.757 101.392 304.229 100.708 303.821 99.916C303.413 99.1 303.209 98.116 303.209 96.964C303.209 95.812 303.425 94.78 303.857 93.868C304.289 92.932 304.901 92.14 305.693 91.492C306.485 90.844 307.445 90.352 308.573 90.016C309.701 89.656 310.973 89.476 312.389 89.476C314.069 89.476 315.521 89.656 316.745 90.016C317.969 90.376 318.977 90.772 319.769 91.204L318.149 95.632C317.453 95.272 316.673 94.96 315.809 94.696C314.969 94.408 313.949 94.264 312.749 94.264C311.405 94.264 310.433 94.456 309.833 94.84C309.257 95.2 308.969 95.764 308.969 96.532C308.969 96.988 309.077 97.372 309.293 97.684C309.509 97.996 309.809 98.284 310.193 98.548C310.601 98.788 311.057 99.016 311.561 99.232C312.089 99.424 312.665 99.628 313.289 99.844C314.585 100.324 315.713 100.804 316.673 101.284C317.633 101.74 318.425 102.28 319.049 102.904C319.697 103.528 320.177 104.26 320.489 105.1C320.801 105.94 320.957 106.96 320.957 108.16C320.957 110.488 320.141 112.3 318.509 113.596C316.877 114.868 314.417 115.504 311.129 115.504C310.025 115.504 309.029 115.432 308.141 115.288C307.253 115.168 306.461 115.012 305.765 114.82C305.093 114.628 304.505 114.424 304.001 114.208C303.521 113.992 303.113 113.788 302.777 113.596L304.361 109.132C305.105 109.54 306.017 109.912 307.097 110.248C308.201 110.56 309.545 110.716 311.129 110.716ZM325.278 90.052H330.894V115H325.278V90.052ZM344.157 89.764C347.877 89.764 350.733 90.424 352.725 91.744C354.717 93.04 355.713 95.176 355.713 98.152C355.713 101.152 354.705 103.324 352.689 104.668C350.673 105.988 347.793 106.648 344.049 106.648H342.285V115H336.669V90.412C337.893 90.172 339.189 90.004 340.557 89.908C341.925 89.812 343.125 89.764 344.157 89.764ZM344.517 94.552C344.109 94.552 343.701 94.564 343.293 94.588C342.909 94.612 342.573 94.636 342.285 94.66V101.86H344.049C345.993 101.86 347.457 101.596 348.441 101.068C349.425 100.54 349.917 99.556 349.917 98.116C349.917 97.42 349.785 96.844 349.521 96.388C349.281 95.932 348.921 95.572 348.441 95.308C347.985 95.02 347.421 94.828 346.749 94.732C346.077 94.612 345.333 94.552 344.517 94.552ZM374.08 115C373.816 114.136 373.516 113.248 373.18 112.336C372.868 111.424 372.556 110.512 372.244 109.6H362.524C362.212 110.512 361.888 111.424 361.552 112.336C361.24 113.248 360.952 114.136 360.688 115H354.856C355.792 112.312 356.68 109.828 357.52 107.548C358.36 105.268 359.176 103.12 359.968 101.104C360.784 99.088 361.576 97.18 362.344 95.38C363.136 93.556 363.952 91.78 364.792 90.052H370.156C370.972 91.78 371.776 93.556 372.568 95.38C373.36 97.18 374.152 99.088 374.944 101.104C375.76 103.12 376.588 105.268 377.428 107.548C378.268 109.828 379.156 112.312 380.092 115H374.08ZM367.348 95.704C367.228 96.064 367.048 96.556 366.808 97.18C366.568 97.804 366.292 98.524 365.98 99.34C365.668 100.156 365.32 101.056 364.936 102.04C364.576 103.024 364.204 104.056 363.82 105.136H370.912C370.528 104.056 370.156 103.024 369.796 102.04C369.436 101.056 369.088 100.156 368.752 99.34C368.44 98.524 368.164 97.804 367.924 97.18C367.684 96.556 367.492 96.064 367.348 95.704ZM400.061 115C398.453 112.144 396.713 109.324 394.841 106.54C392.969 103.756 390.977 101.128 388.865 98.656V115H383.321V90.052H387.893C388.685 90.844 389.561 91.816 390.521 92.968C391.481 94.12 392.453 95.356 393.437 96.676C394.445 97.972 395.441 99.328 396.425 100.744C397.409 102.136 398.333 103.48 399.197 104.776V90.052H404.777V115H400.061ZM425.985 110.716C426.777 110.716 427.425 110.656 427.929 110.536C428.457 110.392 428.877 110.212 429.189 109.996C429.501 109.756 429.717 109.48 429.837 109.168C429.957 108.856 430.017 108.508 430.017 108.124C430.017 107.308 429.633 106.636 428.865 106.108C428.097 105.556 426.777 104.968 424.905 104.344C424.089 104.056 423.273 103.732 422.457 103.372C421.641 102.988 420.909 102.52 420.261 101.968C419.613 101.392 419.085 100.708 418.677 99.916C418.269 99.1 418.065 98.116 418.065 96.964C418.065 95.812 418.281 94.78 418.713 93.868C419.145 92.932 419.757 92.14 420.549 91.492C421.341 90.844 422.301 90.352 423.429 90.016C424.557 89.656 425.829 89.476 427.245 89.476C428.925 89.476 430.377 89.656 431.601 90.016C432.825 90.376 433.833 90.772 434.625 91.204L433.005 95.632C432.309 95.272 431.529 94.96 430.665 94.696C429.825 94.408 428.805 94.264 427.605 94.264C426.261 94.264 425.289 94.456 424.689 94.84C424.113 95.2 423.825 95.764 423.825 96.532C423.825 96.988 423.933 97.372 424.149 97.684C424.365 97.996 424.665 98.284 425.049 98.548C425.457 98.788 425.913 99.016 426.417 99.232C426.945 99.424 427.521 99.628 428.145 99.844C429.441 100.324 430.569 100.804 431.529 101.284C432.489 101.74 433.281 102.28 433.905 102.904C434.553 103.528 435.033 104.26 435.345 105.1C435.657 105.94 435.813 106.96 435.813 108.16C435.813 110.488 434.997 112.3 433.365 113.596C431.733 114.868 429.273 115.504 425.985 115.504C424.881 115.504 423.885 115.432 422.997 115.288C422.109 115.168 421.317 115.012 420.621 114.82C419.949 114.628 419.361 114.424 418.857 114.208C418.377 113.992 417.969 113.788 417.633 113.596L419.217 109.132C419.961 109.54 420.873 109.912 421.953 110.248C423.057 110.56 424.401 110.716 425.985 110.716ZM449.89 115.504C448.138 115.504 446.626 115.264 445.354 114.784C444.082 114.28 443.026 113.596 442.186 112.732C441.37 111.844 440.758 110.8 440.35 109.6C439.966 108.376 439.774 107.032 439.774 105.568V90.052H445.39V105.1C445.39 106.108 445.498 106.972 445.714 107.692C445.954 108.388 446.266 108.964 446.65 109.42C447.058 109.852 447.538 110.164 448.09 110.356C448.666 110.548 449.29 110.644 449.962 110.644C451.33 110.644 452.434 110.224 453.274 109.384C454.138 108.544 454.57 107.116 454.57 105.1V90.052H460.186V105.568C460.186 107.032 459.982 108.376 459.574 109.6C459.166 110.824 458.542 111.88 457.702 112.768C456.862 113.632 455.794 114.304 454.498 114.784C453.202 115.264 451.666 115.504 449.89 115.504ZM472.895 89.764C476.639 89.764 479.507 90.436 481.499 91.78C483.491 93.1 484.487 95.164 484.487 97.972C484.487 99.724 484.079 101.152 483.263 102.256C482.471 103.336 481.319 104.188 479.807 104.812C480.311 105.436 480.839 106.156 481.391 106.972C481.943 107.764 482.483 108.604 483.011 109.492C483.563 110.356 484.091 111.268 484.595 112.228C485.099 113.164 485.567 114.088 485.999 115H479.699C479.243 114.184 478.775 113.356 478.295 112.516C477.839 111.676 477.359 110.86 476.855 110.068C476.375 109.276 475.895 108.532 475.415 107.836C474.935 107.116 474.455 106.468 473.975 105.892H471.203V115H465.587V90.412C466.811 90.172 468.071 90.004 469.367 89.908C470.687 89.812 471.863 89.764 472.895 89.764ZM473.219 94.552C472.811 94.552 472.439 94.564 472.103 94.588C471.791 94.612 471.491 94.636 471.203 94.66V101.428H472.787C474.899 101.428 476.411 101.164 477.323 100.636C478.235 100.108 478.691 99.208 478.691 97.936C478.691 96.712 478.223 95.848 477.287 95.344C476.375 94.816 475.019 94.552 473.219 94.552ZM507.428 115C507.164 114.136 506.864 113.248 506.528 112.336C506.216 111.424 505.904 110.512 505.592 109.6H495.872C495.56 110.512 495.236 111.424 494.9 112.336C494.588 113.248 494.3 114.136 494.036 115H488.204C489.14 112.312 490.028 109.828 490.868 107.548C491.708 105.268 492.524 103.12 493.316 101.104C494.132 99.088 494.924 97.18 495.692 95.38C496.484 93.556 497.3 91.78 498.14 90.052H503.504C504.32 91.78 505.124 93.556 505.916 95.38C506.708 97.18 507.5 99.088 508.292 101.104C509.108 103.12 509.936 105.268 510.776 107.548C511.616 109.828 512.504 112.312 513.44 115H507.428ZM500.696 95.704C500.576 96.064 500.396 96.556 500.156 97.18C499.916 97.804 499.64 98.524 499.328 99.34C499.016 100.156 498.668 101.056 498.284 102.04C497.924 103.024 497.552 104.056 497.168 105.136H504.26C503.876 104.056 503.504 103.024 503.144 102.04C502.784 101.056 502.436 100.156 502.1 99.34C501.788 98.524 501.512 97.804 501.272 97.18C501.032 96.556 500.84 96.064 500.696 95.704ZM532.22 90.052V94.84H524.696V115H519.08V94.84H511.556V90.052H532.22Z" fill="#1A1926"/>
<path d="M154 512C154 485.49 132.51 464 106 464V606H154V512Z" fill="#F0EFFF"/>
<g clip-path="url(#clip1)">
<g opacity="0.1">
<path opacity="0.1" d="M596.747 485.141C596.747 485.141 561.909 480.205 587.891 541.726C587.891 541.726 611.568 530.655 612.511 505.685C612.703 500.825 611.254 496.058 608.44 492.286C605.625 488.514 601.641 485.999 597.241 485.218L596.747 485.141Z" fill="#6C63FF"/>
<path opacity="0.1" d="M597.258 485.048C597.258 485.048 605.145 519.352 587.917 541.731" stroke="#535461" stroke-miterlimit="10"/>
<path opacity="0.1" d="M587.446 544.9C587.446 544.9 599.99 511.169 623.413 498.657C633.276 493.478 641.332 484.945 646.37 474.342C648.724 469.292 650.649 464.017 652.121 458.583" stroke="#535461" stroke-width="2" stroke-miterlimit="10"/>
<path opacity="0.1" d="M666.84 450.609C664.398 453.958 651.761 458.86 651.761 458.86C651.761 458.86 653.282 444.3 655.724 440.975C656.281 440.107 656.995 439.373 657.822 438.817C658.649 438.262 659.571 437.897 660.532 437.745C661.493 437.593 662.473 437.657 663.41 437.933C664.348 438.21 665.223 438.692 665.983 439.352C666.743 440.011 667.372 440.833 667.83 441.768C668.287 442.702 668.565 443.729 668.646 444.785C668.727 445.84 668.608 446.903 668.299 447.907C667.989 448.911 667.494 449.836 666.844 450.624L666.84 450.609Z" fill="#6C63FF"/>
<path opacity="0.1" d="M662.503 477.133C658.784 478.496 645.743 475.104 645.743 475.104C645.743 475.104 654.261 463.805 657.979 462.441C658.88 462.039 659.847 461.842 660.82 461.863C661.793 461.884 662.752 462.123 663.638 462.565C664.523 463.006 665.316 463.641 665.967 464.431C666.619 465.22 667.115 466.147 667.425 467.154C667.735 468.161 667.852 469.226 667.77 470.284C667.687 471.343 667.407 472.371 666.945 473.307C666.484 474.242 665.852 475.064 665.088 475.722C664.324 476.38 663.444 476.86 662.503 477.133Z" fill="#6C63FF"/>
<path opacity="0.1" d="M638.99 508.49C635.152 507.621 625.459 497.507 625.459 497.507C625.459 497.507 638.039 492.445 641.882 493.314C643.621 493.842 645.111 495.073 646.05 496.755C646.989 498.437 647.306 500.446 646.939 502.375C646.571 504.303 645.546 506.007 644.07 507.142C642.594 508.276 640.779 508.757 638.99 508.485V508.49Z" fill="#6C63FF"/>
<path opacity="0.1" d="M616.305 527.845C612.386 527.695 601.266 519.517 601.266 519.517C601.266 519.517 612.885 512.198 616.803 512.353C618.6 512.553 620.26 513.49 621.447 514.975C622.634 516.46 623.259 518.382 623.196 520.351C623.132 522.32 622.385 524.19 621.106 525.58C619.826 526.971 618.11 527.779 616.305 527.84V527.845Z" fill="#6C63FF"/>
<path opacity="0.1" d="M633.599 465.606C634.102 469.852 642.593 481.171 642.593 481.171C642.593 481.171 648.185 467.872 647.687 463.626C647.625 462.565 647.365 461.53 646.923 460.583C646.48 459.637 645.864 458.8 645.113 458.124C644.362 457.447 643.492 456.946 642.557 456.652C641.621 456.357 640.64 456.275 639.674 456.411C638.708 456.547 637.778 456.898 636.942 457.441C636.105 457.985 635.38 458.71 634.81 459.572C634.241 460.434 633.84 461.414 633.631 462.452C633.423 463.49 633.412 464.563 633.599 465.606Z" fill="#6C63FF"/>
<path opacity="0.1" d="M607.329 488.63C608.97 492.513 620.18 500.545 620.18 500.545C620.18 500.545 621.87 486.029 620.229 482.146C619.879 481.155 619.347 480.253 618.665 479.495C617.983 478.738 617.166 478.141 616.264 477.741C615.362 477.342 614.395 477.149 613.422 477.173C612.449 477.198 611.491 477.44 610.607 477.885C609.723 478.329 608.933 478.967 608.284 479.758C607.635 480.549 607.141 481.478 606.834 482.485C606.527 483.493 606.412 484.558 606.497 485.616C606.582 486.674 606.865 487.701 607.329 488.635V488.63Z" fill="#6C63FF"/>
<path opacity="0.1" d="M584.608 514.809C585.622 518.944 595.43 528.923 595.43 528.923C595.43 528.923 599.345 514.93 598.326 510.795C598.137 509.752 597.753 508.763 597.199 507.889C596.645 507.014 595.932 506.273 595.105 505.712C594.277 505.15 593.353 504.78 592.389 504.624C591.426 504.468 590.443 504.529 589.502 504.805C588.56 505.08 587.681 505.563 586.918 506.224C586.155 506.886 585.525 507.711 585.066 508.649C584.607 509.587 584.33 510.617 584.251 511.677C584.172 512.737 584.294 513.803 584.608 514.809Z" fill="#6C63FF"/>
<path opacity="0.25" d="M666.84 450.609C664.398 453.958 651.761 458.86 651.761 458.86C651.761 458.86 653.282 444.3 655.724 440.975C656.281 440.107 656.995 439.373 657.822 438.817C658.649 438.262 659.571 437.897 660.532 437.745C661.493 437.593 662.473 437.657 663.41 437.933C664.348 438.21 665.223 438.692 665.983 439.352C666.743 440.011 667.372 440.833 667.83 441.768C668.287 442.702 668.565 443.729 668.646 444.785C668.727 445.84 668.608 446.903 668.299 447.907C667.989 448.911 667.494 449.836 666.844 450.624L666.84 450.609Z" fill="black"/>
<path opacity="0.25" d="M662.503 477.133C658.784 478.496 645.743 475.104 645.743 475.104C645.743 475.104 654.261 463.805 657.979 462.441C658.88 462.039 659.847 461.842 660.82 461.863C661.793 461.884 662.752 462.123 663.638 462.565C664.523 463.006 665.316 463.641 665.967 464.431C666.619 465.22 667.115 466.147 667.425 467.154C667.735 468.161 667.852 469.226 667.77 470.284C667.687 471.343 667.407 472.371 666.945 473.307C666.484 474.242 665.852 475.064 665.088 475.722C664.324 476.38 663.444 476.86 662.503 477.133Z" fill="black"/>
<path opacity="0.25" d="M638.99 508.49C635.152 507.621 625.459 497.507 625.459 497.507C625.459 497.507 638.039 492.445 641.882 493.314C643.621 493.842 645.111 495.073 646.05 496.755C646.989 498.437 647.306 500.446 646.939 502.375C646.571 504.303 645.546 506.007 644.07 507.142C642.594 508.276 640.779 508.757 638.99 508.485V508.49Z" fill="black"/>
<path opacity="0.25" d="M616.305 527.845C612.386 527.695 601.266 519.517 601.266 519.517C601.266 519.517 612.885 512.198 616.803 512.353C618.6 512.553 620.26 513.49 621.447 514.975C622.634 516.46 623.259 518.382 623.196 520.351C623.132 522.32 622.385 524.19 621.106 525.58C619.826 526.971 618.11 527.779 616.305 527.84V527.845Z" fill="black"/>
<path opacity="0.25" d="M633.599 465.606C634.102 469.852 642.593 481.171 642.593 481.171C642.593 481.171 648.185 467.872 647.687 463.626C647.625 462.565 647.365 461.53 646.923 460.583C646.48 459.637 645.864 458.8 645.113 458.124C644.362 457.447 643.492 456.946 642.557 456.652C641.621 456.357 640.64 456.275 639.674 456.411C638.708 456.547 637.778 456.898 636.942 457.441C636.105 457.985 635.38 458.71 634.81 459.572C634.241 460.434 633.84 461.414 633.631 462.452C633.423 463.49 633.412 464.563 633.599 465.606Z" fill="black"/>
<path opacity="0.25" d="M607.329 488.63C608.97 492.513 620.18 500.545 620.18 500.545C620.18 500.545 621.87 486.029 620.229 482.146C619.879 481.155 619.347 480.253 618.665 479.495C617.983 478.738 617.166 478.141 616.264 477.741C615.362 477.342 614.395 477.149 613.422 477.173C612.449 477.198 611.491 477.44 610.607 477.885C609.723 478.329 608.933 478.967 608.284 479.758C607.635 480.549 607.141 481.478 606.834 482.485C606.527 483.493 606.412 484.558 606.497 485.616C606.582 486.674 606.865 487.701 607.329 488.635V488.63Z" fill="black"/>
<path opacity="0.25" d="M584.608 514.809C585.622 518.944 595.43 528.923 595.43 528.923C595.43 528.923 599.345 514.93 598.326 510.795C598.137 509.752 597.753 508.763 597.199 507.889C596.645 507.014 595.932 506.273 595.105 505.712C594.277 505.15 593.353 504.78 592.389 504.624C591.426 504.468 590.443 504.529 589.502 504.805C588.56 505.08 587.681 505.563 586.918 506.224C586.155 506.886 585.525 507.711 585.066 508.649C584.607 509.587 584.33 510.617 584.251 511.677C584.172 512.737 584.294 513.803 584.608 514.809Z" fill="black"/>
<path opacity="0.1" d="M604.153 560.246C604.153 560.246 616.697 526.515 640.12 514.003C649.979 508.82 658.03 500.286 663.064 489.683C665.418 484.633 667.343 479.358 668.815 473.924" stroke="#535461" stroke-width="2" stroke-miterlimit="10"/>
<path opacity="0.1" d="M683.525 465.946C681.083 469.294 668.446 474.196 668.446 474.196C668.446 474.196 669.967 459.636 672.409 456.312C673.621 454.841 675.302 453.931 677.109 453.767C678.915 453.603 680.711 454.197 682.129 455.427C683.548 456.658 684.483 458.434 684.743 460.391C685.003 462.348 684.569 464.34 683.529 465.96L683.525 465.946Z" fill="#6C63FF"/>
<path opacity="0.1" d="M679.197 492.469C675.478 493.833 662.436 490.44 662.436 490.44C662.436 490.44 670.954 479.142 674.673 477.778C676.42 477.272 678.279 477.511 679.87 478.446C681.462 479.38 682.669 480.941 683.244 482.811C683.82 484.68 683.722 486.719 682.97 488.513C682.219 490.307 680.869 491.721 679.197 492.469Z" fill="#6C63FF"/>
<path opacity="0.1" d="M655.684 523.846C651.845 522.977 642.153 512.863 642.153 512.863C642.153 512.863 654.732 507.801 658.575 508.67C660.314 509.198 661.804 510.429 662.743 512.111C663.682 513.793 664 515.802 663.633 517.731C663.265 519.659 662.24 521.363 660.764 522.498C659.288 523.632 657.472 524.113 655.684 523.841V523.846Z" fill="#6C63FF"/>
<path opacity="0.1" d="M632.994 543.177C629.076 543.027 617.955 534.849 617.955 534.849C617.955 534.849 629.574 527.539 633.493 527.69C635.289 527.889 636.949 528.827 638.136 530.312C639.323 531.797 639.948 533.719 639.885 535.688C639.821 537.657 639.074 539.526 637.795 540.917C636.515 542.308 634.799 543.115 632.994 543.177Z" fill="#6C63FF"/>
<path opacity="0.1" d="M650.289 480.962C650.791 485.209 659.283 496.527 659.283 496.527C659.283 496.527 664.874 483.228 664.376 478.982C664.315 477.921 664.055 476.886 663.612 475.939C663.17 474.993 662.554 474.156 661.803 473.48C661.052 472.803 660.181 472.302 659.246 472.008C658.31 471.713 657.329 471.631 656.363 471.767C655.398 471.903 654.468 472.253 653.631 472.797C652.794 473.341 652.069 474.066 651.5 474.928C650.93 475.79 650.529 476.77 650.321 477.808C650.112 478.846 650.101 479.919 650.289 480.962Z" fill="#6C63FF"/>
<path opacity="0.1" d="M624.023 503.947C625.664 507.83 636.873 515.862 636.873 515.862C636.873 515.862 638.563 501.346 636.922 497.463C636.061 495.728 634.627 494.416 632.911 493.793C631.195 493.171 629.327 493.284 627.684 494.11C626.042 494.936 624.75 496.413 624.07 498.241C623.39 500.069 623.373 502.111 624.023 503.952V503.947Z" fill="#6C63FF"/>
<path opacity="0.1" d="M601.302 530.155C602.316 534.29 612.124 544.269 612.124 544.269C612.124 544.269 616.038 530.277 615.02 526.142C614.437 524.277 613.227 522.723 611.634 521.795C610.041 520.867 608.184 520.635 606.44 521.145C604.695 521.656 603.194 522.871 602.24 524.544C601.286 526.217 600.951 528.223 601.302 530.155Z" fill="#6C63FF"/>
</g>
<path opacity="0.1" d="M211.271 414.68C218.993 450.691 235.34 481.821 261.174 496.91C314.863 528.267 435.944 512.096 526.311 493.513C571.971 484.157 613.417 458.309 643.977 420.13L211.271 414.68Z" fill="#6C63FF"/>
<path opacity="0.1" d="M685.148 245.171H635.565C634.429 245.171 633.339 244.679 632.535 243.802C631.731 242.925 631.28 241.735 631.28 240.495C631.28 239.255 631.731 238.066 632.535 237.189C633.339 236.312 634.429 235.819 635.565 235.819H644.137C643 235.819 641.91 235.326 641.107 234.449C640.303 233.572 639.851 232.383 639.851 231.143C639.851 229.903 640.303 228.713 641.107 227.836C641.91 226.959 643 226.467 644.137 226.467H638.016C636.88 226.467 635.79 225.974 634.986 225.097C634.182 224.22 633.731 223.031 633.731 221.79C633.731 220.55 634.182 219.361 634.986 218.484C635.79 217.607 636.88 217.114 638.016 217.114H663.895C658.153 214.202 651.441 212.13 643.71 211.043C573.145 201.151 547.951 207.694 539.064 214.44C528.1 222.739 515.867 228.845 502.794 231.786C459.252 241.575 377.83 253.369 304.031 228C267.353 215.382 240.09 236.697 223.752 272.302H693.755C693.142 261.954 691.305 252.403 687.933 244.036C687.16 244.767 686.171 245.17 685.148 245.171Z" fill="#6C63FF"/>
<path opacity="0.1" d="M207.063 339.516C205.16 360.46 205.807 381.588 208.989 402.347L644.315 419.717C656.433 404.507 666.608 387.577 674.562 369.388L207.063 339.516ZM379.24 384.336H370.668C371.805 384.336 372.895 384.829 373.699 385.706C374.502 386.583 374.954 387.772 374.954 389.013C374.954 390.253 374.502 391.442 373.699 392.319C372.895 393.196 371.805 393.689 370.668 393.689H321.085C319.949 393.689 318.859 393.196 318.055 392.319C317.251 391.442 316.8 390.253 316.8 389.013C316.8 387.772 317.251 386.583 318.055 385.706C318.859 384.829 319.949 384.336 321.085 384.336H329.657C328.52 384.336 327.43 383.844 326.626 382.967C325.823 382.09 325.371 380.9 325.371 379.66C325.371 378.42 325.823 377.231 326.626 376.354C327.43 375.477 328.52 374.984 329.657 374.984H323.536C322.4 374.984 321.31 374.491 320.506 373.614C319.702 372.737 319.251 371.548 319.251 370.308C319.251 369.068 319.702 367.878 320.506 367.001C321.31 366.124 322.4 365.632 323.536 365.632H373.119C374.256 365.632 375.346 366.124 376.15 367.001C376.953 367.878 377.405 369.068 377.405 370.308C377.405 371.548 376.953 372.737 376.15 373.614C375.346 374.491 374.256 374.984 373.119 374.984H379.24C380.376 374.984 381.466 375.477 382.27 376.354C383.074 377.231 383.525 378.42 383.525 379.66C383.525 380.9 383.074 382.09 382.27 382.967C381.466 383.844 380.376 384.336 379.24 384.336Z" fill="#6C63FF"/>
<path opacity="0.1" d="M693.778 272.627L218.504 285.246C212.726 301.461 208.914 319.792 207.134 338.793H685.451C688.574 327.631 690.884 316.218 692.359 304.659C693.782 293.491 694.351 282.688 693.778 272.627ZM303.622 313.963H295.051C296.187 313.963 297.278 314.456 298.081 315.332C298.885 316.209 299.337 317.399 299.337 318.639C299.337 319.879 298.885 321.069 298.081 321.946C297.278 322.823 296.187 323.315 295.051 323.315H245.468C244.331 323.315 243.241 322.823 242.437 321.946C241.634 321.069 241.182 319.879 241.182 318.639C241.182 317.399 241.634 316.209 242.437 315.332C243.241 314.456 244.331 313.963 245.468 313.963H254.039C252.903 313.963 251.813 313.47 251.009 312.593C250.205 311.716 249.754 310.527 249.754 309.287C249.754 308.046 250.205 306.857 251.009 305.98C251.813 305.103 252.903 304.61 254.039 304.61H247.919C246.782 304.61 245.692 304.118 244.888 303.241C244.085 302.364 243.633 301.174 243.633 299.934C243.633 298.694 244.085 297.505 244.888 296.628C245.692 295.751 246.782 295.258 247.919 295.258H297.502C298.638 295.258 299.728 295.751 300.532 296.628C301.336 297.505 301.787 298.694 301.787 299.934C301.787 301.174 301.336 302.364 300.532 303.241C299.728 304.118 298.638 304.61 297.502 304.61H303.622C304.759 304.61 305.849 305.103 306.653 305.98C307.456 306.857 307.908 308.046 307.908 309.287C307.908 310.527 307.456 311.716 306.653 312.593C305.849 313.47 304.759 313.963 303.622 313.963Z" fill="#6C63FF"/>
<path d="M623.533 599.753C623.533 599.753 603.713 481.137 565.917 461.888C533.891 445.566 499.258 434.564 489.41 431.579C487.94 428.994 486.24 426.574 484.335 424.352C470.875 409.021 462.788 409.307 461.481 409.496C460.86 406.456 460.414 403.376 460.146 400.275C460.106 399.79 460.066 399.338 460.03 398.858L460.146 398.795C460.066 397.877 459.995 396.931 459.933 395.955C465.427 392.756 470.486 388.736 474.963 384.011C475.021 384.22 475.069 384.429 475.132 384.642C484.832 375.696 494.331 366.507 503.631 357.075C506.3 354.352 509.102 351.397 510.009 347.558C510.3 346.237 510.412 344.876 510.343 343.52C510.463 340.608 509.831 337.633 509.725 334.682C509.725 334.196 509.773 333.745 509.831 333.284C510.454 328.455 513.532 324.49 516.059 320.437C522.371 310.196 525.665 298.096 525.502 285.755C525.571 279.842 524.821 273.952 523.278 268.283C521.307 261.09 517.206 253.534 510.378 251.961C507.736 251.355 504.992 251.733 502.296 251.544C491.136 250.767 482.782 240.866 473.882 233.611C463.019 224.798 450.172 219.358 436.705 217.866C432.501 217.381 428.16 217.347 424.161 218.803C415.18 222.065 409.727 232.135 401.075 236.275C394.679 239.352 387.286 238.852 380.614 241.163C370.682 244.608 362.253 255.723 362.03 267.143C362.03 267.565 362.03 267.987 362.03 268.409C362.03 268.482 362.03 268.555 362.03 268.623C361.919 274.393 363.809 280.271 363.961 286.177C363.961 286.711 363.968 287.247 363.983 287.784C363.934 294.161 363.236 300.558 361.105 306.552C359.957 309.779 358.481 313.516 358.721 316.744C358.587 318.719 358.939 320.573 360.198 322.082L362.346 320.015C361.625 324.27 361.264 328.588 361.265 332.915C361.265 354.726 370.357 374.256 384.698 387.399C384.781 388.852 384.861 390.408 384.938 392.068C385.276 399.261 385.543 408.283 385.467 418.116L364.49 439.155L310.561 465.848C310.561 465.848 261.241 477.215 271.863 552.816L276.934 599.757H321.962L321.859 600.005H388.692L388.732 599.757H547.742L547.711 600.005H553.939V599.757L623.533 599.753ZM461.876 410.7C463.24 413.776 464.313 416.996 465.079 420.309C463.505 417.121 462.342 413.711 461.623 410.176L461.69 410.307L461.876 410.7ZM385.449 420.407C385.449 421.332 385.434 422.265 385.405 423.207L385.298 423.372C385.291 422.373 385.341 421.374 385.449 420.382V420.407Z" fill="url(#paint0_linear)"/>
<path d="M479.469 432.312L470.572 525.011L422.978 541.512C422.978 541.512 361.149 528.894 377.163 492.493C388.554 466.601 388.238 420.329 387.108 395.771C386.664 385.802 386.059 379.41 386.059 379.41C386.059 379.41 467.014 302.242 460.342 371.645C459.052 385.084 458.976 395.591 459.692 403.803C462.695 437.99 479.469 432.312 479.469 432.312Z" fill="#FDC2CC"/>
<path opacity="0.03" d="M479.469 432.312L470.572 525.011L422.978 541.512C422.978 541.512 361.149 528.894 377.163 492.493C388.554 466.601 388.238 420.329 387.108 395.771C386.664 385.802 386.059 379.41 386.059 379.41C386.059 379.41 467.014 302.242 460.342 371.645C459.052 385.084 458.976 395.591 459.692 403.803C462.695 437.99 479.469 432.312 479.469 432.312Z" fill="black"/>
<path opacity="0.1" d="M460.342 370.189C459.052 383.628 458.976 394.135 459.692 402.347C448.264 409.155 435.215 412.031 422.26 410.598C409.306 409.164 397.052 403.488 387.108 394.315C386.664 384.346 386.059 377.954 386.059 377.954C386.059 377.954 467.014 300.786 460.342 370.189Z" fill="black"/>
<path d="M428.76 408.05C464.381 408.05 493.258 376.543 493.258 337.676C493.258 298.81 464.381 267.303 428.76 267.303C393.139 267.303 364.263 298.81 364.263 337.676C364.263 376.543 393.139 408.05 428.76 408.05Z" fill="#FDC2CC"/>
<path opacity="0.03" d="M428.76 408.05C464.381 408.05 493.258 376.543 493.258 337.676C493.258 298.81 464.381 267.303 428.76 267.303C393.139 267.303 364.263 298.81 364.263 337.676C364.263 376.543 393.139 408.05 428.76 408.05Z" fill="black"/>
<path opacity="0.1" d="M322.451 525.982C322.451 525.982 343.357 572.574 344.469 599.995L322.451 525.982Z" fill="black"/>
<path opacity="0.1" d="M550.193 552.68L544.188 600H550.193V552.68Z" fill="black"/>
<path opacity="0.1" d="M327.122 599.995L360.26 517.731C360.26 517.731 369.601 498.317 371.825 478.904C374.049 459.491 386.059 428.914 386.059 428.914C386.059 428.914 415.861 387.661 429.65 393.485C443.439 399.309 417.64 421.149 417.64 421.149C417.64 421.149 455.449 437.165 429.65 484.728C403.851 532.291 403.406 523.555 403.406 523.555L390.729 599.995H327.122Z" fill="black"/>
<path d="M326.232 599.995L359.37 517.731C359.37 517.731 368.711 498.317 370.935 478.904C372.35 466.562 377.719 449.706 381.442 439.063C383.872 432.105 387.447 425.69 391.992 420.135C401.627 408.37 419.126 389.399 428.76 393.475C442.549 399.299 416.75 421.139 416.75 421.139C416.75 421.139 454.559 437.155 428.76 484.718C402.961 532.281 402.517 523.545 402.517 523.545L389.84 599.985L326.232 599.995Z" fill="#FDC2CC"/>
<path opacity="0.15" d="M448.554 299.577C449.291 299.577 449.889 298.926 449.889 298.121C449.889 297.317 449.291 296.665 448.554 296.665C447.817 296.665 447.22 297.317 447.22 298.121C447.22 298.926 447.817 299.577 448.554 299.577Z" fill="white"/>
<path opacity="0.15" d="M442.327 302.49C443.064 302.49 443.661 301.838 443.661 301.034C443.661 300.229 443.064 299.578 442.327 299.578C441.59 299.578 440.993 300.229 440.993 301.034C440.993 301.838 441.59 302.49 442.327 302.49Z" fill="white"/>
<path opacity="0.1" d="M382.941 248.991C389.377 246.72 396.521 247.21 402.695 244.191C411.044 240.105 416.306 230.213 424.971 227.01C428.832 225.583 433.022 225.637 437.074 226.093C450.104 227.573 462.514 232.922 472.952 241.561C481.541 248.69 489.601 258.411 500.37 259.173C502.972 259.358 505.619 258.984 508.168 259.581C514.769 261.124 518.723 268.545 520.622 275.597C522.82 283.954 523.335 292.731 522.132 301.326C520.93 309.921 518.039 318.131 513.657 325.392C511.219 329.372 508.248 333.269 507.647 338.011C507.06 342.661 508.875 347.48 507.816 352.033C506.927 355.804 504.258 358.706 501.66 361.38C492.69 370.637 483.522 379.656 474.158 388.438C469.291 371.567 476.431 353.401 475.319 335.759C474.874 328.887 472.65 321.384 467.094 318.142C461.894 315.113 455.249 316.686 449.987 313.774C444.115 310.546 441.704 302.902 437.265 297.612C429.703 288.585 416.577 287.42 406.004 291.497C395.431 295.573 386.788 303.96 378.426 312.138L363.227 327.013C360.26 323.364 362.511 317.763 364.116 313.201C366.509 306.362 367.034 298.99 366.874 291.73C366.745 285.906 364.904 280.154 365.01 274.486C365.224 263.304 373.355 252.374 382.941 248.991Z" fill="black"/>
<path d="M382.941 247.535C389.377 245.264 396.521 245.754 402.695 242.735C411.044 238.648 416.306 228.757 424.971 225.554C428.832 224.127 433.022 224.181 437.074 224.637C450.104 226.117 462.514 231.466 472.952 240.104C481.541 247.234 489.601 256.955 500.37 257.717C502.972 257.902 505.619 257.528 508.168 258.125C514.769 259.668 518.723 267.089 520.622 274.141C522.82 282.498 523.335 291.275 522.132 299.87C520.93 308.465 518.039 316.675 513.657 323.936C511.219 327.916 508.248 331.813 507.647 336.555C507.06 341.205 508.875 346.024 507.816 350.577C506.927 354.348 504.258 357.25 501.66 359.924C492.69 369.181 483.522 378.2 474.158 386.982C469.291 370.111 476.431 351.945 475.319 334.303C474.874 327.431 472.65 319.928 467.094 316.686C461.894 313.657 455.249 315.23 449.987 312.318C444.115 309.09 441.704 301.446 437.265 296.156C429.703 287.129 416.577 285.964 406.004 290.041C395.431 294.117 386.788 302.504 378.426 310.682L363.227 325.557C360.26 321.908 362.511 316.307 364.116 311.745C366.509 304.906 367.034 297.534 366.874 290.274C366.745 284.45 364.904 278.698 365.01 273.03C365.224 261.848 373.355 250.918 382.941 247.535Z" fill="#865A61"/>
</g>
</g>
<defs>
<linearGradient id="paint0_linear" x1="446.944" y1="599.995" x2="446.944" y2="217.541" gradientUnits="userSpaceOnUse">
<stop stop-color="#808080" stop-opacity="0.25"/>
<stop offset="0.54" stop-color="#808080" stop-opacity="0.12"/>
<stop offset="1" stop-color="#808080" stop-opacity="0.1"/>
</linearGradient>
<clipPath id="clip0">
<rect width="800" height="600" fill="white"/>
</clipPath>
<clipPath id="clip1">
<rect width="488" height="394" fill="white" transform="translate(206 206)"/>
</clipPath>
</defs>
</svg>
