<svg xmlns="http://www.w3.org/2000/svg" width="800" height="600" viewBox="0 0 800 600" fill="none">
<rect width="800" height="600" fill="white"/>
<g clip-path="url(#clip0)">
<path xmlns="http://www.w3.org/2000/svg" opacity="0.1" d="M497.531 218.042C466.245 217.137 436.45 208.684 408.017 199.436C379.585 190.188 351.359 179.959 320.824 175.06C301.185 171.91 278.726 171.464 262.902 180.272C247.672 188.748 242.754 203.383 240.109 216.966C238.114 227.181 236.945 237.936 242.4 247.497C246.173 254.129 252.911 259.715 257.56 266.073C273.733 288.204 262.303 315.489 244.772 337.093C236.549 347.227 227.01 356.897 220.663 367.685C214.317 378.473 211.393 390.843 216.934 401.835C222.436 412.732 235.549 420.933 249.756 426.699C278.609 438.401 312.61 441.751 345.762 443.651C419.15 447.849 492.933 446.02 566.519 444.21C593.749 443.537 621.102 442.855 647.894 439.33C662.77 437.373 678.128 434.27 688.916 426.775C702.628 417.261 706.023 401.148 696.838 389.218C681.428 369.206 638.841 364.236 628.048 342.759C622.116 330.939 628.208 317.768 636.823 306.804C655.306 283.286 686.29 262.653 687.921 235.77C689.039 217.293 674.148 198.816 651.119 190.079C626.982 180.921 593.509 182.072 575.676 197.233C557.376 212.84 525.152 218.861 497.531 218.042Z" fill="#1cc88a"/>
<path xmlns="http://www.w3.org/2000/svg" opacity="0.1" d="M419.324 567C495.039 567 556.418 560.781 556.418 553.109C556.418 545.437 495.039 539.218 419.324 539.218C343.608 539.218 282.229 545.437 282.229 553.109C282.229 560.781 343.608 567 419.324 567Z" fill="#1cc88a"/>
<path d="M293.909 551.602C293.909 551.602 287.826 516.974 265.25 499.813C255.777 492.612 248.845 482.819 245.818 471.666C244.394 466.382 243.481 460.971 243.093 455.51" stroke="#535461" stroke-width="2" stroke-miterlimit="10"/>
<path xmlns="http://www.w3.org/2000/svg" d="M228.938 444.613C230.824 448.323 243.428 455.832 243.428 455.832C243.428 455.832 245.012 441.804 243.112 438.089C241.211 434.375 236.51 432.826 232.587 434.626C228.664 436.426 227.038 440.899 228.938 444.613Z" fill="#1cc88a"/>
<path xmlns="http://www.w3.org/2000/svg" d="M227.735 470.572C231.46 472.708 246.332 472.519 246.332 472.519C246.332 472.519 239.622 459.926 235.912 457.789C232.201 455.652 227.349 456.78 225.095 460.31C222.841 463.839 224.015 468.435 227.735 470.572Z" fill="#1cc88a"/>
<path xmlns="http://www.w3.org/2000/svg" d="M246.224 505.499C250.571 505.56 263.307 498.274 263.307 498.274C263.307 498.274 250.816 490.617 246.464 490.551C242.112 490.485 238.533 493.782 238.448 497.909C238.363 502.035 241.872 505.423 246.224 505.499Z" fill="#1cc88a"/>
<path xmlns="http://www.w3.org/2000/svg" d="M266.48 528.918C270.752 529.68 284.605 524.535 284.605 524.535C284.605 524.535 273.657 514.974 269.39 514.226C265.122 513.477 260.996 516.121 260.195 520.195C259.393 524.27 262.204 528.16 266.48 528.918Z" fill="#1cc88a"/>
<path xmlns="http://www.w3.org/2000/svg" d="M261.581 466.388C260.096 470.268 248.379 478.967 248.379 478.967C248.379 478.967 245.276 465.17 246.761 461.29C248.247 457.41 252.768 455.406 256.856 456.813C260.945 458.22 263.066 462.513 261.581 466.388Z" fill="#1cc88a"/>
<path xmlns="http://www.w3.org/2000/svg" d="M284.907 494.076C282.267 497.359 268.347 502.334 268.347 502.334C268.347 502.334 269.762 488.286 272.384 485.008C273.708 483.417 275.581 482.387 277.628 482.124C279.675 481.86 281.746 482.382 283.427 483.586C284.242 484.151 284.933 484.88 285.454 485.727C285.976 486.573 286.317 487.519 286.456 488.505C286.595 489.491 286.529 490.495 286.263 491.453C285.996 492.412 285.535 493.305 284.907 494.076V494.076Z" fill="#1cc88a"/>
<path xmlns="http://www.w3.org/2000/svg" d="M303.683 523.938C301.665 527.596 288.835 534.731 288.835 534.731C288.835 534.731 287.708 520.664 289.726 517.007C291.744 513.349 296.502 511.937 300.359 513.851C304.216 515.765 305.697 520.281 303.683 523.938Z" fill="#1cc88a"/>
<path opacity="0.25" d="M228.938 448.402C230.824 452.111 243.428 459.621 243.428 459.621C243.428 459.621 245.012 445.592 243.112 441.878C241.211 438.163 236.51 436.614 232.587 438.414C228.664 440.215 227.038 444.687 228.938 448.402Z" fill="black"/>
<path opacity="0.25" d="M227.735 470.572C231.46 472.708 246.332 472.519 246.332 472.519C246.332 472.519 239.622 459.926 235.912 457.789C232.201 455.652 227.349 456.78 225.095 460.31C222.841 463.839 224.015 468.435 227.735 470.572Z" fill="black"/>
<path opacity="0.25" d="M246.224 505.499C250.571 505.56 263.307 498.274 263.307 498.274C263.307 498.274 250.816 490.617 246.464 490.551C242.112 490.485 238.533 493.782 238.448 497.909C238.363 502.035 241.872 505.423 246.224 505.499Z" fill="black"/>
<path opacity="0.25" d="M266.48 528.918C270.752 529.68 284.605 524.535 284.605 524.535C284.605 524.535 273.657 514.974 269.39 514.226C265.122 513.477 260.996 516.121 260.195 520.195C259.393 524.27 262.204 528.16 266.48 528.918Z" fill="black"/>
<path opacity="0.25" d="M261.581 466.388C260.096 470.268 248.379 478.967 248.379 478.967C248.379 478.967 245.276 465.17 246.761 461.29C248.247 457.41 252.768 455.406 256.856 456.813C260.945 458.22 263.066 462.513 261.581 466.388Z" fill="black"/>
<path opacity="0.25" d="M284.907 494.076C282.267 497.359 268.347 502.334 268.347 502.334C268.347 502.334 269.762 488.286 272.384 485.008C273.708 483.417 275.581 482.387 277.628 482.124C279.675 481.86 281.746 482.382 283.427 483.586C284.242 484.151 284.933 484.88 285.454 485.727C285.976 486.573 286.317 487.519 286.456 488.505C286.595 489.491 286.529 490.495 286.263 491.453C285.996 492.412 285.535 493.305 284.907 494.076V494.076Z" fill="black"/>
<path xmlns="http://www.w3.org/2000/svg" opacity="0.25" d="M303.683 523.938C301.665 527.596 288.835 534.731 288.835 534.731C288.835 534.731 287.708 520.664 289.726 517.007C291.744 513.349 296.502 511.937 300.359 513.851C304.216 515.765 305.697 520.281 303.683 523.938Z" fill="black"/>
<path d="M293.145 550.693C293.145 550.693 302.372 516.694 289.066 492.323C283.483 482.099 281.328 470.482 283.328 459.12C284.287 453.718 285.764 448.422 287.736 443.306" stroke="#535461" stroke-width="2" stroke-miterlimit="10"/>
<path xmlns="http://www.w3.org/2000/svg" d="M279.447 427.903C279.598 432.025 287.901 443.732 287.901 443.732C287.901 443.732 295.342 431.513 295.191 427.387C295.04 423.26 291.395 420.034 287.048 420.176C282.701 420.318 279.291 423.776 279.447 427.903Z" fill="#1cc88a"/>
<path xmlns="http://www.w3.org/2000/svg" d="M267.263 451.175C269.753 454.558 283.427 460.101 283.427 460.101C283.427 460.101 282.672 446.011 280.183 442.623C278.923 440.982 277.094 439.88 275.06 439.536C273.027 439.193 270.939 439.634 269.215 440.771C268.377 441.3 267.657 441.996 267.1 442.818C266.543 443.639 266.161 444.568 265.977 445.545C265.794 446.521 265.814 447.526 266.035 448.495C266.256 449.464 266.674 450.376 267.263 451.175Z" fill="#1cc88a"/>
<path xmlns="http://www.w3.org/2000/svg" d="M269.243 490.2C273.195 491.93 287.953 490.167 287.953 490.167C287.953 490.167 279.801 478.361 275.849 476.631C271.898 474.902 267.22 476.536 265.396 480.284C263.571 484.032 265.297 488.471 269.243 490.2Z" fill="#1cc88a"/>
<path xmlns="http://www.w3.org/2000/svg" d="M277.754 519.409C281.343 521.749 296.2 522.37 296.2 522.37C296.2 522.37 290.268 509.431 286.685 507.095C284.958 505.965 282.869 505.532 280.838 505.883C278.807 506.235 276.983 507.345 275.731 508.99C275.144 509.794 274.728 510.712 274.511 511.685C274.294 512.658 274.28 513.666 274.47 514.645C274.66 515.624 275.05 516.553 275.615 517.373C276.18 518.193 276.909 518.886 277.754 519.409Z" fill="#1cc88a"/>
<path xmlns="http://www.w3.org/2000/svg" d="M299.991 460.362C296.973 463.337 282.545 466.791 282.545 466.791C282.545 466.791 285.605 452.98 288.618 450.005C290.109 448.569 292.084 447.75 294.149 447.712C296.213 447.673 298.217 448.417 299.76 449.796C300.502 450.453 301.1 451.257 301.517 452.157C301.933 453.058 302.16 454.035 302.182 455.028C302.203 456.021 302.02 457.008 301.643 457.926C301.266 458.844 300.703 459.673 299.991 460.362V460.362Z" fill="#1cc88a"/>
<path xmlns="http://www.w3.org/2000/svg" d="M309.469 494.64C305.654 496.625 290.806 495.824 290.806 495.824C290.806 495.824 298.081 483.506 301.896 481.535C305.711 479.564 310.501 480.876 312.59 484.496C314.679 488.116 313.302 492.654 309.469 494.64Z" fill="#1cc88a"/>
<path xmlns="http://www.w3.org/2000/svg" d="M313.896 529.159C310.487 531.727 295.71 533.319 295.71 533.319C295.71 533.319 300.689 520.02 304.098 517.452C305.755 516.216 307.815 515.655 309.867 515.878C311.918 516.102 313.81 517.096 315.165 518.66C315.805 519.417 316.283 520.299 316.567 521.251C316.852 522.202 316.937 523.202 316.818 524.189C316.699 525.175 316.378 526.126 315.875 526.981C315.372 527.837 314.698 528.578 313.896 529.159V529.159Z" fill="#1cc88a"/>
<path d="M681.847 352.165C682.13 351.388 680.008 347.081 680.008 346.868C680.008 346.655 677.816 344.252 677.816 342.912C677.816 341.571 674.911 338.676 674.911 338.676C674.911 338.676 671.021 337.051 670.597 333.521C670.172 329.992 665.933 329.916 665.924 329.916C665.924 329.916 665.924 329.594 665.952 329.106C665.952 328.007 665.919 326.045 665.429 324.974C664.924 324 664.059 323.263 663.019 322.923C663.019 322.923 662.595 320.17 661.746 319.322C661.272 318.824 660.932 318.214 660.758 317.547C660.584 316.881 660.582 316.181 660.751 315.513C661.176 314.172 660.186 310.775 658.13 310.301C656.074 309.828 653.745 309.032 653.745 309.032C653.745 309.032 653.514 309.074 653.179 309.122L652.896 309.032C652.403 309.123 651.906 309.185 651.406 309.216C650.972 309.232 650.547 309.091 650.208 308.818C649.496 308.041 643.763 306.559 642.702 306.559C641.641 306.559 638.595 305.137 638.595 305.137L635.558 302.806C634.705 302.152 633.125 299.49 632.894 299.115L632.866 299.063C632.605 298.462 632.39 297.841 632.224 297.206V297.206C633.26 296.119 634.144 294.896 634.856 293.572C634.931 293.435 634.997 293.293 635.063 293.155C635.223 293.153 635.382 293.127 635.535 293.079C635.596 293.079 635.657 293.032 635.718 293.008C636.436 292.629 636.977 291.98 637.223 291.203V291.203C637.274 291.052 637.322 290.895 637.359 290.73C637.359 290.677 637.359 290.621 637.392 290.568C637.425 290.516 637.439 290.355 637.458 290.246C637.477 290.137 637.482 290.123 637.491 290.066C637.501 290.009 637.524 289.853 637.538 289.744C637.553 289.635 637.538 289.626 637.538 289.569C637.538 289.431 637.571 289.299 637.59 289.166C637.638 288.665 637.712 288.167 637.812 287.674C637.812 287.674 637.812 287.674 637.812 287.674C638.236 285.779 639.382 284.139 640.198 282.367C640.316 282.116 640.424 281.856 640.523 281.595C640.622 281.334 640.721 281.027 640.801 280.738L640.872 280.472C640.924 280.264 640.971 280.051 641.014 279.837C641.014 279.743 641.051 279.648 641.065 279.553C641.113 279.259 641.155 278.966 641.179 278.667C641.331 276.975 641.09 275.271 640.476 273.688C639.943 272.361 639.156 271.167 638.618 269.841C637.803 267.832 637.59 265.577 636.595 263.644C634.931 260.431 631.008 258.825 627.783 260.033C626.241 260.607 624.906 261.725 623.346 262.227C621.252 262.895 619.017 262.393 616.853 262.09C614.689 261.786 612.293 261.763 610.553 263.184C608.549 264.819 607.998 267.893 606.116 269.689C605.329 270.442 604.343 270.926 603.509 271.622C602.923 272.094 602.472 272.714 602.203 273.418C602.203 273.47 602.17 273.517 602.156 273.569C602.141 273.621 602.123 273.688 602.108 273.749C602.094 273.811 602.08 273.891 602.071 273.962C602.061 274.034 602.071 274.062 602.071 274.109C602.061 274.236 602.061 274.362 602.071 274.488V274.488C602.084 274.608 602.105 274.727 602.132 274.844C602.132 274.877 602.132 274.91 602.132 274.943C602.132 274.976 602.189 275.137 602.222 275.237C602.22 275.256 602.22 275.275 602.222 275.294C602.259 275.403 602.302 275.507 602.344 275.616L602.415 275.777L602.471 275.91C602.748 276.431 602.968 276.981 603.127 277.549C603.215 277.909 603.194 278.287 603.066 278.634C602.874 279.027 602.606 279.378 602.278 279.667C600.87 281.139 599.783 282.889 599.086 284.807C599.006 285.025 598.926 285.243 598.855 285.471L598.954 285.494C599.156 285.556 599.362 285.602 599.572 285.632C599.69 285.632 599.807 285.66 599.93 285.67C600.414 285.695 600.899 285.657 601.373 285.556C601.491 285.532 601.613 285.504 601.731 285.471C602.217 285.336 602.69 285.16 603.146 284.945C603.146 285.087 603.146 285.234 603.146 285.376C603.146 285.518 603.146 285.537 603.146 285.617C603.151 288.741 604.022 291.802 605.662 294.456C607.302 297.109 609.646 299.251 612.43 300.641C612.43 300.793 612.472 300.949 612.491 301.115C612.51 301.281 612.524 301.371 612.538 301.499L612.35 301.314C612.35 301.314 611.072 300.679 609.87 302.512C608.667 304.346 606.404 305.199 606.404 305.199C606.404 305.199 593.522 307.246 593.027 308.942L587.01 309.292C587.01 309.292 584.884 309.576 584.653 314.03C584.422 318.484 583.309 318.905 583.309 318.905C583.309 318.905 580.833 323.283 581.046 325.538C581.258 327.793 579.16 328.93 579.16 328.93L578.877 332.953C578.877 332.953 576.519 332.602 575.901 335.355C575.284 338.108 574.133 339.382 574.133 339.382C574.133 339.382 570.238 342.632 570.026 345.385L567.621 346.868C567.621 346.868 562.029 345.598 560.756 343.338L560.365 342.969C560.352 342.951 560.341 342.932 560.332 342.912C560.331 342.921 560.331 342.931 560.332 342.94C559.492 342.144 557.72 340.486 557.974 340.865C558.139 341.22 558.179 341.621 558.087 342.002L557.672 341.528L556.56 340.287C556.56 340.287 547.52 331.759 542.211 331.105C542.14 330.968 541.801 329.627 540.896 330.465C540.144 331.156 539.542 331.996 539.129 332.932C538.716 333.867 538.5 334.879 538.495 335.903C538.491 336.926 538.697 337.94 539.101 338.879C539.505 339.819 540.098 340.664 540.844 341.362L549.308 349.308L549.524 349.469L551.345 351.838C551.038 352.577 550.779 353.292 550.567 353.946C550.567 353.946 550.567 353.989 550.543 354.008C550.501 354.15 550.453 354.282 550.411 354.415L550.368 354.557C550.331 354.69 550.288 354.822 550.251 354.946C550.213 355.069 550.208 355.102 550.185 355.178C550.161 355.254 550.185 355.268 550.147 355.31C549.949 356.021 549.817 356.566 549.751 356.869L549.279 356.722L549.751 356.921C549.751 356.945 549.751 356.973 549.751 356.997L549.723 357.144L550.156 357.333C552.637 358.418 565.014 363.872 565.65 364.701C566.358 365.615 571.026 368.302 575.274 366.042C579.523 363.782 580.461 360.318 580.461 360.318C580.461 360.318 584.563 354.6 584.705 353.752C584.846 352.904 588.034 351.913 588.034 351.913C588.034 351.913 588.316 361.389 586.69 364.838C585.063 368.287 582.017 383.628 582.017 383.628C582.215 383.588 582.419 383.576 582.62 383.59C582.507 384.145 582.441 384.476 582.441 384.476C582.689 384.431 582.943 384.431 583.191 384.476C582.965 386.22 581.663 394.312 581.663 394.312C581.663 394.312 581.239 397.984 580.532 399.254C579.824 400.523 579.754 407.166 579.754 407.166L578.622 411.965C578.751 412.249 578.894 412.525 579.051 412.794V412.794C579.051 412.794 580.268 415.504 582.309 417.025C582.216 417.78 582.024 418.519 581.739 419.223C581.296 420.295 581.102 421.453 581.173 422.611C581.173 422.611 579.971 428.05 580.112 429.604C580.253 431.158 579.334 434.972 579.334 434.972L578.018 447.224C578.018 447.224 577.17 457.889 577.594 460.788C578.018 463.688 577.306 467.634 577.306 467.634C577.306 467.634 578.155 476.039 577.943 476.958C577.731 477.877 576.67 481.829 577.306 484.022C577.943 486.216 577.594 492.214 577.594 492.214C577.594 492.214 578.018 500.121 578.509 502.665C578.999 505.21 578.367 508.46 578.367 508.46C578.367 508.46 577.896 513.894 577.66 513.894C577.424 513.894 575.609 517.637 579.358 521.313C583.106 524.99 580.772 524.417 580.772 524.417C580.772 524.417 577.802 522.934 578.15 525.971C578.49 528.861 578.957 528.107 578.999 528.027L578.292 530.348L578.763 530.419L578.353 530.893C577.929 531.432 577.455 531.93 576.939 532.381C576.085 533.016 575.996 534.428 575.996 534.428C575.996 534.428 570.762 540.151 565.877 543.046C563.307 544.571 561.091 545.86 560.124 546.926C559.252 547.874 559.393 548.66 561.204 549.262C565.028 550.531 571.747 551.157 576.561 549.546C579.431 548.582 582.012 546.905 584.063 544.671C584.063 544.671 587.109 543.117 590.085 543.681C593.06 544.244 599.001 540.364 599.001 540.364L598.893 539.36L598.577 536.474C598.377 536.231 598.23 535.949 598.144 535.646C598.059 535.342 598.038 535.024 598.082 534.712C598.117 533.858 598.033 533.003 597.832 532.172C597.785 531.893 597.728 531.613 597.676 531.353L598.218 531.253C598.218 531.253 597.516 527.648 598.789 526.942C600.062 526.236 599.704 516.993 599.704 516.993C599.704 516.993 598.082 514.875 597.228 514.524C596.375 514.174 597.157 509.786 597.304 509.223C597.45 508.659 598.577 497.71 598.577 497.71C598.577 497.71 598.152 494.251 598.718 492.768C599.284 491.285 598.039 485.6 598.039 485.6C598.039 485.6 597.615 484.894 598.398 484.046C599.18 483.198 598.869 475.641 598.869 475.641C598.869 475.641 598.803 471.827 598.803 470.837C598.803 469.847 599.652 466.246 600.43 465.047C601.208 463.849 600.713 460.101 600.713 460.101L600.755 459.822C600.755 459.713 600.793 459.58 600.821 459.419L600.882 459.045C601.228 456.964 601.695 454.906 602.283 452.881C603.226 449.915 604.263 444.689 604.263 444.689L610.865 427.443L610.94 427.24C610.94 427.24 613.981 432.892 613.981 438.137C613.981 438.137 614.759 444.424 614.547 446.12C614.335 447.816 615.174 455.752 615.174 455.752C615.174 455.752 616.094 467.194 616.094 467.691C616.094 468.189 617.225 477.015 617.937 478.356C618.649 479.697 617.225 483.795 616.801 484.216C616.377 484.638 616.942 495.023 616.942 495.023C616.942 495.023 615.882 503.215 615.669 504.911C615.457 506.607 614.608 513.108 615.316 515.647C616.023 518.186 615.74 518.542 615.74 518.542C615.74 518.542 618.291 521.157 616.801 521.385C616.259 521.503 615.749 521.737 615.305 522.07C614.86 522.402 614.492 522.827 614.224 523.315C613.956 523.802 613.795 524.342 613.751 524.897C613.708 525.453 613.783 526.011 613.972 526.534C614.853 529.124 615.894 531.656 617.089 534.115C617.089 534.115 617.527 534.015 618.258 533.869V534.707L618.343 538.914C618.343 538.914 618.814 542.941 618.555 543.861C618.348 544.533 618.084 547.698 617.928 549.352C617.876 549.953 617.848 550.356 617.848 550.356C617.848 550.356 617.848 554.099 625.703 552.971C633.559 551.844 634.973 548.736 634.973 548.736C634.973 548.736 634.973 548.589 635.03 548.347C635.148 547.632 635.402 546.116 635.61 545.272C635.893 544.14 633.347 539.056 633.347 539.056C633.347 539.056 632.922 535.598 632.21 534.821C631.919 534.373 631.726 533.867 631.644 533.338C631.578 533.054 631.522 532.755 631.475 532.466C631.651 532.489 631.825 532.52 631.998 532.561C631.998 532.561 631.574 530.088 633.205 529.311C634.837 528.534 634.408 526.914 634.195 526.203C633.983 525.492 634.832 521.541 634.832 521.541C634.718 521.148 634.71 520.732 634.81 520.336C634.909 519.94 635.112 519.577 635.398 519.286C636.393 518.291 637.166 511.374 637.166 511.374L637.307 484.676C637.307 484.676 637.807 479.938 637.241 478.043C636.676 476.148 636.105 472.467 636.883 471.477C637.661 470.486 636.954 465.9 636.954 465.9C636.954 465.9 636.954 456.221 638.019 453.823C639.085 451.426 638.727 436.237 638.727 436.237L639.005 426.287C639.005 426.287 641.32 424.089 640.773 412.628C643.239 412.472 646.021 412.382 646.431 412.723C647.209 413.363 652.236 416.608 655.206 414.561C655.843 414.277 658.743 411.809 658.743 411.809L657.498 390.631C658.276 391.81 658.747 392.597 658.747 392.597C658.747 389.631 667.098 380.023 667.098 380.023C667.098 380.023 674.883 369.927 676.58 368.723C678.278 367.52 681.607 361.166 681.607 361.166C682.099 359.954 682.667 358.776 683.309 357.637C684.115 356.334 681.564 352.942 681.847 352.165ZM663.581 359.574C661.459 359.788 656.979 364.663 656.927 365.734C656.894 366.293 656.423 367.041 655.984 367.629C655.951 367.202 655.914 366.766 655.881 366.326C655.381 360.086 654.839 352.482 655.084 351.743C655.513 350.473 655.367 344.755 655.367 344.755L655.442 344.646C656.857 349.076 661.303 354.301 661.303 354.301C661.303 354.301 662.081 356.561 663.001 356.632C663.92 356.703 663.581 359.574 663.581 359.574Z" fill="url(#paint0_linear)"/>
<path d="M550.104 357.968C550.104 357.968 552.684 344.371 560.987 344.3L567.056 356.845L563.01 359.65C563.01 359.65 554.221 359.93 550.104 357.968Z" fill="#65617D"/>
<path opacity="0.1" d="M567.056 356.845L563.01 359.65C563.01 359.65 556.824 359.849 552.401 358.755C551.612 358.567 550.843 358.304 550.104 357.968C550.104 357.968 550.104 357.893 550.152 357.75C550.152 357.75 550.152 357.717 550.152 357.698C550.532 355.992 551.058 354.321 551.722 352.705C551.981 352.093 552.269 351.463 552.58 350.833C553.796 348.464 555.503 346.181 557.842 345.039C558.707 344.612 559.648 344.366 560.61 344.314H560.855H560.978L561.11 344.594L563.161 348.829L567.056 356.845Z" fill="black"/>
<path d="M635.973 413.339C635.973 413.339 644.696 412.5 645.46 413.131C646.224 413.761 651.18 416.982 654.112 414.95C657.045 412.917 655.088 405.839 655.088 405.56C655.088 405.28 654.81 395.255 654.81 395.255L649.576 388.177L643.022 375.773L629.631 374.437L629.98 394.137L629.909 404.228L635.973 413.339Z" fill="#65617D"/>
<path opacity="0.1" d="M635.973 413.339C635.973 413.339 644.696 412.5 645.46 413.131C646.224 413.761 651.18 416.982 654.112 414.95C657.045 412.917 655.088 405.839 655.088 405.56C655.088 405.28 654.81 395.255 654.81 395.255L649.576 388.177L643.022 375.773L629.631 374.437L629.98 394.137L629.909 404.228L635.973 413.339Z" fill="black"/>
<path d="M559.242 343.94C559.242 343.94 558.545 352.491 553.245 352.629C553.245 352.629 551.741 351.719 549.718 350.203C545.059 346.702 537.67 339.969 539.712 333.706C542.64 324.737 556.871 341.287 556.871 341.287L557.96 342.518L559.242 343.94Z" fill="#FBBEBE"/>
<path opacity="0.1" d="M559.242 343.94C559.242 343.94 558.545 352.491 553.245 352.629C553.245 352.629 551.741 351.719 549.718 350.203L549.27 349.62C550.17 350.092 551.161 350.36 552.174 350.407C552.972 350.439 553.759 350.226 554.433 349.797C555.107 349.368 555.635 348.743 555.947 348.005C556.504 346.905 556.994 345.772 557.413 344.613C557.671 343.937 557.854 343.234 557.96 342.518L559.242 343.94Z" fill="black"/>
<path d="M556.942 359.442L555.749 357.897L551.731 352.686L549.685 350.028C550.584 350.502 551.575 350.77 552.589 350.814C553.924 350.847 555.418 350.341 556.362 348.417C556.918 347.315 557.408 346.181 557.828 345.02C558.488 343.125 558.479 342.177 558.243 341.831C558.007 341.486 559.723 343.101 560.549 343.888L560.577 343.916L560.964 344.281L561.105 344.565L563.128 348.625C563.128 348.625 563.128 348.682 563.128 348.796C563.326 350.099 564.01 358.281 556.942 359.442Z" fill="#E7EFFD"/>
<path d="M598.728 539.852C598.728 539.852 592.867 543.709 589.938 543.169C587.01 542.629 584.007 544.154 584.007 544.154C581.988 546.37 579.442 548.034 576.609 548.992C571.893 550.603 565.245 549.968 561.477 548.707C559.695 548.11 559.549 547.343 560.407 546.391C561.35 545.329 563.547 544.055 566.065 542.539C570.88 539.668 576.038 534.011 576.038 534.011C576.038 534.011 576.109 532.589 576.948 531.983C577.465 531.536 577.938 531.041 578.363 530.505C579.112 529.614 579.815 528.685 579.815 528.685L597.054 529.188C597.054 529.188 597.346 530.434 597.577 531.708C597.774 532.535 597.855 533.385 597.818 534.233C597.773 534.542 597.792 534.856 597.873 535.157C597.955 535.457 598.096 535.738 598.289 535.982L598.6 538.824L598.728 539.852Z" fill="#65617D"/>
<path d="M634.789 544.69C634.582 545.528 634.318 547.03 634.219 547.736L634.158 548.125C634.158 548.125 632.743 551.209 625.024 552.332C617.305 553.455 617.282 549.735 617.282 549.735C617.282 549.735 617.31 549.337 617.357 548.736C617.494 547.096 617.772 543.955 617.98 543.287C618.253 542.378 617.768 538.379 617.768 538.379L617.687 534.205L617.626 531.305L630.466 529.969C630.545 530.934 630.683 531.893 630.881 532.84C630.959 533.367 631.151 533.869 631.442 534.314C632.14 535.086 632.554 538.521 632.554 538.521C632.554 538.521 635.068 543.567 634.789 544.69Z" fill="#65617D"/>
<path opacity="0.1" d="M597.054 529.188C597.054 529.188 597.346 530.434 597.577 531.708C595.715 532.054 587.576 533.471 585.544 532.48C583.238 531.358 578.287 530.727 578.287 530.727L578.367 530.443C579.117 529.552 579.82 528.624 579.82 528.624L597.054 529.188Z" fill="black"/>
<path opacity="0.1" d="M630.881 532.84C627.627 532.286 620.507 533.627 617.678 534.205L617.617 531.305L630.456 529.969C630.538 530.934 630.68 531.893 630.881 532.84V532.84Z" fill="black"/>
<path d="M638.118 426.586L637.84 436.469C637.84 436.469 638.189 451.54 637.142 453.923C636.096 456.306 636.096 465.91 636.096 465.91C636.096 465.91 636.793 470.463 636.025 471.443C635.256 472.424 635.817 476.067 636.374 477.963C636.93 479.858 636.445 484.553 636.445 484.553L636.303 511.047C636.303 511.047 635.539 517.912 634.558 518.897C634.277 519.188 634.077 519.549 633.98 519.942C633.882 520.336 633.89 520.748 634.002 521.138C634.002 521.138 633.168 525.061 633.375 525.767C633.582 526.473 634.002 528.079 632.399 528.847C630.796 529.614 631.211 532.073 631.211 532.073C627.377 531.159 616.495 533.617 616.495 533.617C615.319 531.182 614.293 528.675 613.425 526.113C613.237 525.594 613.162 525.041 613.204 524.491C613.247 523.941 613.405 523.406 613.669 522.922C613.933 522.438 614.297 522.017 614.736 521.685C615.176 521.354 615.68 521.121 616.216 521.001C617.678 520.788 615.17 518.196 615.17 518.196C615.17 518.196 615.448 517.845 614.75 515.325C614.052 512.804 614.887 506.323 615.099 504.665C615.311 503.007 616.353 494.853 616.353 494.853C616.353 494.853 615.797 484.553 616.216 484.131C616.636 483.71 618.027 479.644 617.334 478.313C616.641 476.982 615.514 468.222 615.514 467.729C615.514 467.236 614.613 455.884 614.613 455.884C614.613 455.884 613.774 447.963 613.986 446.281C614.198 444.599 613.425 438.364 613.425 438.364C613.425 433.152 610.426 427.567 610.426 427.567L610.351 427.77L603.886 444.883C603.886 444.883 602.839 450.066 601.934 453.009C601.361 455.009 600.906 457.042 600.571 459.097L600.51 459.471C600.51 459.627 600.463 459.76 600.449 459.864L600.406 460.148C600.406 460.148 600.878 463.863 600.123 465.057C599.369 466.251 598.52 469.823 598.52 470.804C598.52 471.784 598.591 475.57 598.591 475.57C598.591 475.57 598.869 483.07 598.119 483.913C597.37 484.757 597.766 485.453 597.766 485.453C597.766 485.453 599.02 491.138 598.464 492.602C597.907 494.066 598.327 497.506 598.327 497.506C598.327 497.506 597.209 508.374 597.073 508.934C596.936 509.493 596.163 513.842 597.002 514.192C597.841 514.543 599.44 516.642 599.44 516.642C599.44 516.642 599.793 525.829 598.534 526.525C597.275 527.221 597.973 530.789 597.973 530.789C597.973 530.789 587.864 532.75 585.563 531.628C583.262 530.505 578.306 529.875 578.306 529.875L578.999 527.572C578.957 527.653 578.495 528.401 578.165 525.53C577.82 522.517 580.749 523.986 580.749 523.986C580.749 523.986 583.05 524.549 579.334 520.906C575.618 517.263 577.448 513.543 577.66 513.543C577.872 513.543 578.363 508.152 578.363 508.152C578.363 508.152 578.99 504.925 578.499 502.4C578.009 499.875 577.594 492.024 577.594 492.024C577.594 492.024 577.943 486.069 577.316 483.899C576.689 481.729 577.731 477.797 577.943 476.887C578.155 475.977 577.292 467.658 577.292 467.658C577.292 467.658 577.99 463.735 577.571 460.864C577.151 457.993 577.99 447.404 577.99 447.404L579.244 435.209C579.244 435.209 580.15 431.418 580.013 429.879C579.876 428.339 581.064 422.943 581.064 422.943C580.993 421.793 581.184 420.643 581.621 419.579C582.319 418.157 582.597 413.552 582.597 413.552L589.297 398.131L592.598 384.533L636.888 384.112C636.888 384.112 637.053 385.291 637.322 387.428C637.59 389.565 637.968 392.739 638.387 396.657C638.774 400.215 639.198 404.399 639.608 409.056C640.948 423.923 638.118 426.586 638.118 426.586Z" fill="#3F3D56"/>
<path d="M634.021 303.858L623.695 314.935C623.695 314.935 610.445 309.605 611.841 307.786C612.378 307.08 612.312 304.853 611.982 302.399C611.511 298.514 610.445 294.046 610.445 294.046C610.445 294.046 633.601 290.256 631.663 294.183C630.951 295.605 631.074 297.291 631.517 298.841C632.078 300.637 632.924 302.332 634.021 303.858Z" fill="#FBBEBE"/>
<path opacity="0.1" d="M631.649 294.193C630.937 295.614 630.598 295.766 631.041 297.315C628.014 300.57 624.161 304.142 619.371 304.142C616.807 304.146 614.278 303.551 611.982 302.403C611.511 298.518 610.445 294.051 610.445 294.051C610.445 294.051 633.601 290.261 631.649 294.193Z" fill="black"/>
<path d="M635.978 287.034C635.904 291.41 634.123 295.582 631.017 298.651C627.911 301.72 623.729 303.439 619.373 303.439C615.017 303.439 610.836 301.72 607.73 298.651C604.624 295.582 602.842 291.41 602.769 287.034C602.769 286.954 602.769 286.873 602.769 286.797C602.8 282.373 604.579 278.142 607.715 275.036C609.267 273.498 611.106 272.282 613.126 271.458C615.147 270.634 617.308 270.218 619.489 270.234C621.669 270.249 623.825 270.696 625.833 271.549C627.841 272.402 629.663 273.644 631.194 275.204C632.724 276.764 633.934 278.611 634.754 280.641C635.574 282.671 635.989 284.843 635.973 287.034H635.978Z" fill="#FBBEBE"/>
<path opacity="0.1" d="M638.378 397.088C636.18 397.088 628.858 397.169 620.672 397.297H620.573L617.871 397.344H617.786C608.083 397.501 598.515 395.596 594.682 395.956C586.525 396.724 597.615 388.376 597.615 388.376C603.696 389.861 609.952 390.498 616.207 390.271L618.564 390.147C625.977 389.726 633.431 389.025 637.326 387.85C637.586 390.02 637.958 393.17 638.378 397.088Z" fill="black"/>
<path d="M638.378 396.667C636.18 396.667 628.858 396.747 620.672 396.875H620.573L617.871 396.923H617.786C608.083 397.079 598.515 395.174 594.682 395.534C586.525 396.307 597.615 387.954 597.615 387.954C603.696 389.439 609.952 390.077 616.207 389.849L618.564 389.726C625.977 389.304 633.431 388.603 637.326 387.433C637.586 389.603 637.958 392.739 638.378 396.667Z" fill="#5F5D7E"/>
<path opacity="0.1" d="M614.91 308.482L602.075 314.513L592.173 391.469C592.173 391.469 598.03 388.807 601.382 390.489C604.735 392.171 615.056 390.631 615.056 390.631C615.056 390.631 622.601 390.209 623.709 391.052C624.817 391.896 637.93 387.527 637.93 387.527C637.93 387.527 640.287 382.202 638.486 381.368C636.685 380.534 639.061 372.267 639.061 372.267L637.93 316.754L635.695 309.605L629.697 305.962L623.567 310.865L620.639 311.287L614.91 308.482Z" fill="black"/>
<path d="M614.91 307.643L602.075 313.67L592.173 390.631C592.173 390.631 598.03 387.968 601.382 389.65C604.735 391.332 615.056 389.787 615.056 389.787C615.056 389.787 622.601 389.37 623.709 390.209C624.817 391.048 637.939 386.703 637.939 386.703C637.939 386.703 640.297 381.378 638.496 380.544C636.694 379.71 639.061 371.419 639.061 371.419L637.93 315.911L635.695 308.766L629.697 305.118L623.567 310.027L620.639 310.448L614.91 307.643Z" fill="#E7EFFD"/>
<path opacity="0.1" d="M614.698 311.216C614.698 311.216 618.395 315.631 618.329 316.546C618.263 317.46 618.117 319.63 618.117 319.63L615.325 325.315C615.325 325.315 613.793 332.394 613.793 333.867C613.793 335.341 611.35 348.081 611.35 348.081L608.413 367.709L604.716 393.436L608.488 399.95L612.949 396.16L618.88 350.317L620.135 341.277C620.135 341.277 621.46 325.017 621.46 323.335C621.46 321.653 620.696 317.238 620.696 317.238C620.696 317.238 621.601 313.03 625.369 312.026C629.136 311.022 625.09 311.813 625.09 311.813L622.926 310.064L621.04 310.832C621.04 310.832 615.816 309.254 614.698 311.216Z" fill="black"/>
<path xmlns="http://www.w3.org/2000/svg" d="M614.278 310.799C614.278 310.799 617.98 315.214 617.909 316.124C617.838 317.034 617.697 319.208 617.697 319.208L614.91 324.894C614.91 324.894 613.373 331.972 613.373 333.446C613.373 334.919 610.931 347.659 610.931 347.659L608.002 367.283L604.306 393.009L608.078 399.528L612.543 395.738L618.47 349.9L619.729 340.865C619.729 340.865 621.054 324.605 621.054 322.923C621.054 321.241 620.29 316.825 620.29 316.825C620.29 316.825 621.196 312.618 624.963 311.637C628.73 310.657 624.685 311.429 624.685 311.429L622.521 309.676L620.634 310.448C620.634 310.448 615.396 308.833 614.278 310.799Z" fill="#1cc88a"/>
<path opacity="0.1" d="M611.841 303.436C611.841 303.436 611.279 303.858 611.143 306.663C611.006 309.468 609.049 315.774 609.049 315.774C609.049 315.774 616.306 310.728 619.932 311.287L611.841 303.436Z" fill="black"/>
<path d="M611.841 302.598C611.841 302.598 611.279 303.015 611.143 305.819C611.006 308.624 609.049 314.93 609.049 314.93C609.049 314.93 616.306 309.884 619.932 310.448L611.841 302.598Z" fill="#E7EFFD"/>
<path opacity="0.1" d="M631.649 301.195L620.201 311.287C620.201 311.287 629.829 317.034 631.083 318.436C632.338 319.839 633.592 304.697 633.592 304.697L631.649 301.195Z" fill="black"/>
<path d="M632.069 300.352L620.63 310.448C620.63 310.448 630.253 316.195 631.517 317.598C632.781 319 634.026 303.858 634.026 303.858L632.069 300.352Z" fill="#E7EFFD"/>
<path opacity="0.1" d="M612.256 303.436C612.256 303.436 611.001 302.806 609.818 304.63C608.946 305.819 607.763 306.741 606.399 307.293C606.399 307.293 593.701 309.325 593.197 311.007L587.265 311.358C587.265 311.358 585.171 311.637 584.964 316.053C584.756 320.469 583.639 320.89 583.639 320.89C583.639 320.89 581.196 325.235 581.409 327.476C581.621 329.717 579.523 330.844 579.523 330.844L588.241 353.624C588.241 353.624 588.524 363.014 586.916 366.449C585.308 369.884 582.314 385.092 582.314 385.092C582.314 385.092 583.568 384.813 583.497 385.651C583.427 386.49 582.007 395.677 582.007 395.677C582.007 395.677 581.588 399.32 580.89 400.585C580.192 401.85 580.121 408.431 580.121 408.431L579.009 413.197C579.009 413.197 581.659 419.157 585.704 418.314C589.75 417.47 597.073 401.566 597.073 401.566L601.75 384.391L605.376 367.43L606.423 355.936L608.097 330.494L610.539 313.67C610.539 313.67 613.236 304.616 612.256 303.436Z" fill="black"/>
<path d="M611.841 302.598C611.841 302.598 610.582 301.968 609.398 303.787C608.528 304.978 607.344 305.9 605.98 306.45C605.98 306.45 593.286 308.482 592.777 310.164L586.845 310.515C586.845 310.515 584.756 310.799 584.544 315.214C584.332 319.63 583.219 320.047 583.219 320.047C583.219 320.047 580.777 324.396 580.989 326.637C581.201 328.878 579.103 330.001 579.103 330.001L587.826 352.78C587.826 352.78 588.104 362.171 586.501 365.606C584.898 369.041 581.894 384.254 581.894 384.254C581.894 384.254 583.149 383.969 583.083 384.813C583.017 385.656 581.545 394.833 581.545 394.833C581.545 394.833 581.126 398.481 580.428 399.742C579.73 401.002 579.664 407.592 579.664 407.592L578.547 412.358C578.547 412.358 581.196 418.314 585.242 417.475C589.288 416.637 596.625 400.722 596.625 400.722L601.297 383.552L604.923 366.591L605.97 355.093L607.644 329.651L610.087 312.831C610.087 312.831 612.817 303.787 611.841 302.598Z" fill="#65617D"/>
<path opacity="0.1" d="M567.056 356.845L563.01 359.65C563.01 359.65 556.824 359.849 552.401 358.755L550.152 357.75L549.68 357.551L550.152 357.698C552.486 358.395 554.31 358.381 555.739 357.897C561.463 355.96 560.831 346.46 560.61 344.314C560.61 344.096 560.572 343.959 560.563 343.907C560.562 343.897 560.562 343.888 560.563 343.878L560.596 343.935C560.675 344.064 560.763 344.188 560.86 344.305C560.94 344.395 561.025 344.489 561.114 344.579L563.137 348.64C563.137 348.64 563.137 348.696 563.137 348.81L567.056 356.845Z" fill="black"/>
<path d="M581.064 329.442L579.108 330.001L578.829 333.995C578.829 333.995 576.528 333.645 575.901 336.364C575.274 339.084 574.157 340.363 574.157 340.363C574.157 340.363 570.319 343.584 570.111 346.318L567.753 347.792C567.753 347.792 562.241 346.527 560.987 344.286C560.987 344.286 563.5 362.37 550.104 357.954C550.104 357.954 565.104 364.54 565.801 365.454C566.499 366.368 571.101 369.026 575.288 366.785C579.475 364.544 580.381 361.1 580.381 361.1C580.381 361.1 584.426 355.415 584.563 354.581C584.7 353.747 587.864 352.757 587.864 352.757L593.862 338.179L581.064 329.442Z" fill="#65617D"/>
<path opacity="0.1" d="M630.046 309.605L632.069 300.352C632.069 300.352 632.974 303.365 633.884 304.066L636.883 306.383C636.883 306.383 639.882 307.781 640.929 307.781C641.975 307.781 647.624 309.254 648.322 310.027C649.02 310.799 651.811 310.235 651.811 310.235C651.811 310.235 654.112 311.007 656.135 311.495C658.158 311.983 659.134 315.352 658.714 316.707C658.544 317.37 658.545 318.066 658.715 318.729C658.886 319.392 659.222 320 659.691 320.497C660.53 321.34 660.949 324.074 660.949 324.074C661.971 324.413 662.818 325.144 663.307 326.107C664.005 327.646 663.779 331.01 663.779 331.01L653.405 345.731C653.405 345.731 653.542 351.416 653.127 352.672C652.712 353.927 654.589 375.38 654.589 375.38L656.753 412.245C656.753 412.245 653.891 414.699 653.264 414.978C652.637 415.258 652.009 401.945 652.009 401.452C652.009 400.959 635.898 377.199 635.898 377.199C635.898 377.199 633.733 373.698 633.733 372.935C633.733 372.172 631.71 365.085 631.71 365.085L628.641 351.416L630.046 309.605Z" fill="black"/>
<path d="M664.67 330.2C664.67 330.674 664.67 331.006 664.67 331.006L654.296 345.693C654.296 345.693 654.438 351.378 654.023 352.629C653.778 353.363 654.31 360.906 654.805 367.103C655.154 371.571 655.484 375.337 655.484 375.337L656.404 390.972L657.644 412.197C657.644 412.197 654.787 414.651 654.16 414.931C653.532 415.21 652.905 401.897 652.905 401.405C652.905 400.912 636.789 377.156 636.789 377.156C636.789 377.156 634.624 373.646 634.624 372.892C634.624 372.139 632.602 365.042 632.602 365.042L629.537 351.373L630.928 309.6L632.069 300.352C632.069 300.352 633.813 303.37 634.719 304.066L637.718 306.378C637.718 306.378 640.716 307.8 641.763 307.8C642.81 307.8 648.464 309.269 649.161 310.041C649.859 310.813 652.646 310.249 652.646 310.249C652.646 310.249 654.947 311.022 656.97 311.51C658.993 311.998 659.973 315.366 659.554 316.721C659.383 317.384 659.382 318.08 659.553 318.743C659.724 319.406 660.06 320.015 660.53 320.511C661.364 321.35 661.784 324.084 661.784 324.084C662.805 324.426 663.652 325.157 664.142 326.121C664.641 327.14 664.689 329.087 664.67 330.2Z" fill="#65617D"/>
<path opacity="0.1" d="M579.405 516.936C579.749 516.936 594.399 517.495 594.121 519.878C593.843 522.261 579.405 516.936 579.405 516.936Z" fill="black"/>
<path opacity="0.1" d="M582.682 520.93C582.682 520.93 592.518 522.54 589.934 524.014C587.35 525.487 582.682 520.93 582.682 520.93Z" fill="black"/>
<path opacity="0.1" d="M619.258 515.391C619.258 515.391 635.582 516.813 633.139 518.618C630.697 520.423 624.906 520.717 624.652 520.788C624.397 520.859 619.258 515.391 619.258 515.391Z" fill="black"/>
<path opacity="0.1" d="M617.282 522.612C617.282 522.612 626.349 524.151 626.627 525.928C626.906 527.705 617.282 522.612 617.282 522.612Z" fill="black"/>
<path opacity="0.1" d="M622.304 480.417C622.304 480.417 630.602 482.378 631.093 483.733L622.304 480.417Z" fill="black"/>
<path opacity="0.1" d="M590.283 486.443C590.283 486.443 585.959 487.703 590.146 490.233C594.333 492.763 590.283 486.443 590.283 486.443Z" fill="black"/>
<path opacity="0.1" d="M609.469 419.086C609.94 419.086 617.56 416.565 620.21 417.665C622.107 418.381 624.111 418.764 626.137 418.797L609.469 419.086Z" fill="black"/>
<path opacity="0.1" d="M610.445 427.074L610.37 427.77L603.886 444.883C603.886 444.883 602.839 450.066 601.934 453.009C601.361 455.009 600.906 457.042 600.571 459.097L606.329 423.222L610.445 427.074Z" fill="black"/>
<path d="M620.573 396.875L617.871 396.923H617.786L616.202 389.858L618.56 389.731L620.573 396.875Z" fill="#3F3D56"/>
<path d="M653.485 388.319L651.745 389.74L645.95 394.539C645.95 394.539 630.253 402.954 625.93 394.961C622.12 387.921 639.915 382.894 644.201 381.799C644.781 381.653 645.111 381.577 645.111 381.577L653.485 388.319Z" fill="#FBBEBE"/>
<path opacity="0.1" d="M586.449 319.417C586.449 319.417 589.519 320.838 590.221 322.781C590.924 324.723 586.449 319.417 586.449 319.417Z" fill="black"/>
<path opacity="0.1" d="M576.962 340.443C576.962 340.443 572.497 345.911 574.312 348.024C576.128 350.137 576.962 340.443 576.962 340.443Z" fill="black"/>
<path opacity="0.1" d="M656.762 322.501C656.762 322.501 652.575 322.923 652.438 326.566L656.762 322.501Z" fill="black"/>
<path opacity="0.1" d="M617.98 379.975C618.395 379.554 628.023 365.255 630.239 366.52L617.98 379.975Z" fill="black"/>
<path opacity="0.1" d="M635.978 287.034C635.982 289.782 635.306 292.488 634.012 294.908L633.889 294.885C632.837 294.662 632.29 293.43 631.484 292.663C630.99 292.189 630.36 291.883 629.683 291.788C629.006 291.693 628.317 291.813 627.712 292.132C627.102 292.5 626.606 293.031 626.28 293.666C625.953 294.301 625.809 295.015 625.864 295.728C625.331 293.482 625.501 291.099 624.982 288.849C624.463 286.598 622.902 284.324 620.762 284.286C619.819 284.286 618.767 284.623 618.098 283.931C617.697 283.514 617.626 282.855 617.315 282.344C615.787 279.861 611.133 281.117 609.233 282.391C607.333 283.665 605.131 285.707 602.769 286.797C602.8 282.373 604.579 278.142 607.715 275.036C609.267 273.498 611.106 272.282 613.126 271.458C615.147 270.634 617.308 270.218 619.489 270.234C621.669 270.249 623.825 270.696 625.833 271.549C627.841 272.402 629.663 273.644 631.194 275.204C632.724 276.764 633.934 278.611 634.754 280.641C635.574 282.671 635.989 284.843 635.973 287.034H635.978Z" fill="black"/>
<path d="M617.32 281.927C617.621 282.434 617.702 283.092 618.102 283.509C618.767 284.206 619.847 283.846 620.767 283.864C622.907 283.902 624.468 286.177 624.987 288.427C625.505 290.677 625.336 293.061 625.868 295.306C625.813 294.593 625.958 293.878 626.285 293.243C626.613 292.608 627.11 292.077 627.721 291.71C628.326 291.391 629.016 291.271 629.692 291.366C630.369 291.461 630.999 291.767 631.494 292.241C632.3 293.008 632.847 294.24 633.898 294.463C634.95 294.686 635.964 293.672 636.346 292.568C636.727 291.464 636.699 290.232 636.949 289.076C637.421 286.892 638.835 285.096 639.627 283.016C640.562 280.487 640.537 277.701 639.557 275.19C639.033 273.872 638.255 272.688 637.722 271.376C636.921 269.376 636.713 267.112 635.733 265.216C634.092 262.028 630.225 260.436 627.042 261.635C625.529 262.203 624.213 263.312 622.671 263.809C620.611 264.477 618.404 263.975 616.273 263.677C614.142 263.378 611.779 263.35 610.063 264.757C608.087 266.382 607.55 269.433 605.692 271.215C604.914 271.963 603.947 272.442 603.127 273.11C602.306 273.778 601.594 274.829 601.712 275.952C601.835 277.402 603.249 278.719 602.726 280.065C602.538 280.455 602.275 280.804 601.953 281.093C600.399 282.729 599.244 284.704 598.577 286.863C602.306 288.038 606.347 283.902 609.271 281.946C611.143 280.7 615.792 279.439 617.32 281.927Z" fill="#7C5C5C"/>
<path opacity="0.1" d="M653.485 388.319L651.745 389.74C650.213 387.182 643.927 382.065 643.927 382.065L644.201 381.799C644.781 381.653 645.111 381.577 645.111 381.577L653.485 388.319Z" fill="black"/>
<path d="M655.159 385.722C655.159 385.722 654.532 387.286 653.891 388.631C653.25 389.977 652.542 391.209 652.509 390.209C652.439 388.248 644.347 381.657 644.347 381.657L645.446 380.587L646.714 379.345L655.159 385.722Z" fill="#E7EFFD"/>
<path opacity="0.1" d="M655.437 375.347L656.357 390.981C654.188 387.594 648.237 378.914 644.413 379.194L653.679 368.482C654.065 368.05 654.421 367.593 654.744 367.112C655.093 371.58 655.437 375.347 655.437 375.347Z" fill="black"/>
<path opacity="0.1" d="M655.159 385.722C655.159 385.722 654.532 387.286 653.891 388.631C651.458 385.282 648.115 381.326 645.446 380.577L646.714 379.336L655.159 385.722Z" fill="black"/>
<path d="M662.133 329.02L664.646 330.982C664.646 330.982 668.829 331.053 669.248 334.559C669.668 338.065 673.492 339.676 673.492 339.676C673.492 339.676 676.349 342.547 676.349 343.878C676.349 345.209 678.514 347.593 678.514 347.806C678.514 348.019 680.607 352.292 680.324 353.06C680.041 353.828 682.559 357.196 681.791 358.456C681.16 359.589 680.601 360.76 680.117 361.962C680.117 361.962 676.84 368.273 675.166 369.462C673.492 370.651 665.816 380.677 665.816 380.677C665.816 380.677 657.588 390.209 657.588 393.151C657.588 393.151 649.572 379.696 644.819 380.046L654.098 369.32C654.098 369.32 655.701 367.572 655.772 366.52C655.843 365.468 660.237 360.631 662.331 360.423C662.331 360.423 662.675 357.547 661.77 357.476C660.865 357.405 660.096 355.164 660.096 355.164C660.096 355.164 653.966 347.877 653.886 343.248C653.806 338.619 662.133 329.02 662.133 329.02Z" fill="#65617D"/>
<path opacity="0.1" d="M665.83 335.677C665.83 335.677 659.973 340.026 661.228 341.424C662.482 342.822 665.83 335.677 665.83 335.677Z" fill="black"/>
<path opacity="0.1" d="M666.108 353.624C666.108 353.624 676.991 350.118 678.108 353.624H666.108Z" fill="black"/>
<path opacity="0.1" d="M598.728 539.852C598.728 539.852 592.867 543.709 589.938 543.169C587.01 542.629 584.007 544.154 584.007 544.154C581.988 546.37 579.442 548.034 576.609 548.992C571.893 550.603 565.245 549.968 561.477 548.707C559.695 548.11 559.549 547.343 560.407 546.391C564.505 547.21 573.657 548.845 576.123 547.656C579.329 546.111 583.936 542.747 583.936 542.747C583.936 542.747 589.938 541.909 590.773 541.909C591.367 541.909 596.002 539.985 598.619 538.886L598.728 539.852Z" fill="black"/>
<path opacity="0.1" d="M634.219 547.736L634.158 548.125C634.158 548.125 632.743 551.209 625.024 552.332C617.305 553.455 617.282 549.735 617.282 549.735C617.282 549.735 617.31 549.338 617.357 548.736C619.809 549.669 625.156 550.711 634.219 547.736Z" fill="black"/>
<path opacity="0.1" d="M589.344 334.838C589.344 334.838 589.344 350.819 587.982 352.397C586.619 353.974 589.344 334.838 589.344 334.838Z" fill="black"/>
<path opacity="0.1" d="M652.226 339.988L654.249 345.702C654.249 345.702 655.055 340.093 652.226 339.988Z" fill="black"/>
<g opacity="0.1">
<path opacity="0.1" d="M602.905 278.724C603.414 277.407 602.075 276.118 601.901 274.706C601.724 275.105 601.647 275.541 601.679 275.976C601.769 277.037 602.547 278.027 602.754 279.013C602.813 278.921 602.863 278.824 602.905 278.724V278.724Z" fill="black"/>
<path opacity="0.1" d="M626.057 293.819C625.557 291.611 625.703 289.27 625.194 287.058C624.685 284.845 623.115 282.533 620.979 282.495C620.036 282.495 618.979 282.836 618.315 282.145C617.909 281.728 617.843 281.064 617.527 280.557C615.999 278.07 611.35 279.33 609.445 280.605C606.616 282.5 602.674 286.494 599.015 285.594C598.841 286.015 598.68 286.447 598.544 286.887C602.273 288.062 606.314 283.926 609.238 281.969C611.124 280.7 615.792 279.439 617.32 281.927C617.621 282.434 617.702 283.092 618.102 283.509C618.767 284.206 619.847 283.846 620.766 283.864C622.907 283.902 624.468 286.176 624.987 288.427C625.505 290.677 625.335 293.061 625.868 295.306C625.834 294.803 625.898 294.297 626.057 293.819V293.819Z" fill="black"/>
<path opacity="0.1" d="M636.544 291.194C636.166 292.302 635.171 293.326 634.096 293.089C633.021 292.852 632.498 291.634 631.696 290.862C631.199 290.394 630.569 290.092 629.893 289.997C629.218 289.903 628.53 290.022 627.924 290.336C627.343 290.685 626.864 291.183 626.538 291.779C626.213 292.375 626.051 293.048 626.071 293.729C626.354 292.873 626.939 292.151 627.717 291.701C628.322 291.382 629.011 291.262 629.688 291.357C630.364 291.452 630.994 291.758 631.489 292.231C632.295 292.999 632.842 294.231 633.894 294.453C634.945 294.676 635.959 293.662 636.341 292.558C636.539 291.903 636.668 291.228 636.723 290.545C636.677 290.765 636.617 290.982 636.544 291.194V291.194Z" fill="black"/>
<path opacity="0.1" d="M639.825 281.642C639.043 283.722 637.619 285.513 637.147 287.702C637.053 288.143 636.996 288.593 636.944 289.048C637.416 286.868 638.83 285.082 639.618 283.007C639.965 282.073 640.183 281.096 640.264 280.103C640.156 280.626 640.01 281.141 639.825 281.642V281.642Z" fill="black"/>
</g>
<path d="M539.019 332.394C539.113 332.394 539.189 332.317 539.189 332.223C539.189 332.129 539.113 332.053 539.019 332.053C538.925 332.053 538.849 332.129 538.849 332.223C538.849 332.317 538.925 332.394 539.019 332.394Z" fill="#E6E8EC"/>
<path xmlns="http://www.w3.org/2000/svg" opacity="0.1" d="M599.251 552.54C621.735 552.54 639.962 550.671 639.962 548.366C639.962 546.061 621.735 544.192 599.251 544.192C576.767 544.192 558.54 546.061 558.54 548.366C558.54 550.671 576.767 552.54 599.251 552.54Z" fill="#1cc88a"/>
<path d="M449.548 274.574L326.241 354.955L406.71 500.785C407.086 501.466 407.599 502.063 408.216 502.536C408.832 503.009 409.54 503.348 410.294 503.532L483.205 521.403C484.455 521.707 485.77 521.571 486.931 521.019C488.093 520.466 489.031 519.53 489.59 518.367L525.755 442.87L565.391 389.631L471.332 277.819C468.715 274.709 465.059 272.664 461.05 272.067C457.04 271.469 452.951 272.361 449.548 274.574V274.574Z" fill="#DCDFED"/>
<path opacity="0.1" d="M566.645 390.261L566.296 390.735L543.079 421.924L542.659 422.488L527.009 443.509L496.078 508.09L495.21 509.895L490.844 519.006C490.285 520.172 489.346 521.109 488.182 521.662C487.018 522.214 485.701 522.349 484.45 522.043L411.539 504.163C410.785 503.979 410.077 503.64 409.46 503.167C408.843 502.694 408.331 502.097 407.955 501.415L400.944 488.732L399.685 486.448L349.076 394.696L348.643 393.914L327.49 355.585L330.046 353.918L349.421 341.291L349.869 340.998L390.669 314.4L393.244 312.722L450.793 275.204C454.196 272.987 458.287 272.092 462.299 272.689C466.311 273.286 469.969 275.332 472.586 278.444L515.495 329.471L517.381 331.745L548.525 368.766L548.695 368.97L564.354 387.58L566.325 389.925L566.645 390.261Z" fill="black"/>
<path opacity="0.1" d="M547.488 368.339L543.687 394.871L542.541 402.878L541.886 419.934L541.834 421.265L538.425 510.383C538.392 511.21 538.179 512.02 537.801 512.755C537.422 513.489 536.888 514.132 536.236 514.637C535.583 515.142 534.828 515.496 534.024 515.676C533.22 515.855 532.387 515.855 531.583 515.675L494.833 507.432L494.437 507.342L400.185 486.206L398.454 485.818L346.639 474.191L347.827 394.066L347.865 391.389L348.223 367.136L348.619 340.367L389.42 313.769L391.994 312.092C429.838 315.991 480.169 323.491 514.264 328.84L516.15 331.115L547.271 368.136L547.488 368.339Z" fill="black"/>
<path xmlns="http://www.w3.org/2000/svg" d="M551.792 336.88L547.318 368.15L543.215 396.785L542.07 404.773L541.414 421.829L537.953 512.278C537.921 513.105 537.707 513.915 537.329 514.65C536.951 515.385 536.417 516.027 535.764 516.532C535.111 517.037 534.357 517.391 533.553 517.571C532.749 517.75 531.915 517.75 531.112 517.571L493.965 509.237L399.713 488.101L346.167 476.086L347.393 393.284L347.751 369.031L348.171 340.661L348.6 311.481C357.455 311.059 372.025 312.012 389.42 313.769C428.367 317.697 481.46 325.642 516.174 331.115C537.43 334.464 551.792 336.88 551.792 336.88Z" fill="#1cc88a"/>
<path opacity="0.1" d="M563.147 386.949L543.216 396.771L441.494 446.897L347.751 369.05L328.801 353.287L326.245 354.955L347.398 393.284L346.172 476.086L399.718 488.101L406.715 500.784C407.091 501.467 407.603 502.063 408.22 502.536C408.837 503.009 409.545 503.348 410.299 503.532L483.21 521.403C484.459 521.706 485.773 521.569 486.933 521.017C488.094 520.464 489.032 519.529 489.59 518.366L493.956 509.256L531.102 517.589C531.906 517.769 532.739 517.769 533.543 517.59C534.347 517.41 535.102 517.056 535.755 516.551C536.407 516.046 536.941 515.404 537.32 514.669C537.698 513.934 537.911 513.124 537.944 512.297L541.405 421.848L565.042 390.105L565.108 389.304L563.147 386.949Z" fill="black"/>
<path d="M326.241 354.955L317.834 499.614C317.756 500.953 318.155 502.276 318.959 503.346C319.763 504.417 320.92 505.165 322.223 505.456L545.498 555.274C546.281 555.446 547.091 555.448 547.875 555.28C548.658 555.112 549.397 554.777 550.042 554.298C550.686 553.819 551.221 553.208 551.611 552.504C552.001 551.8 552.236 551.021 552.302 550.219L565.386 389.631L441.494 450.687L326.241 354.955Z" fill="#DCDFED"/>
<path opacity="0.1" d="M319.371 502.926L435.365 431.02C437.082 429.974 439.113 429.571 441.097 429.883C443.082 430.195 444.893 431.202 446.21 432.726L550.029 554.388C550.406 554.824 550.59 554.511 550.029 554.388L319.371 502.926C318.795 503.272 318.711 502.779 319.371 502.926Z" fill="black"/>
<path d="M320.201 502.808L434.997 433.129C436.812 432.027 438.955 431.605 441.05 431.936C443.144 432.267 445.055 433.331 446.445 434.939L549.326 553.824C549.497 554.022 549.601 554.269 549.624 554.529C549.647 554.79 549.588 555.051 549.455 555.276C549.322 555.501 549.121 555.678 548.883 555.782C548.644 555.886 548.378 555.912 548.124 555.857L320.573 505.086C320.331 505.034 320.11 504.909 319.939 504.729C319.768 504.548 319.655 504.32 319.615 504.074C319.575 503.829 319.609 503.576 319.714 503.35C319.818 503.124 319.988 502.935 320.201 502.808V502.808Z" fill="#E3E5F1"/>
</g>
<path xmlns="http://www.w3.org/2000/svg" d="M494 120L494 138L115 138L115 120L494 120Z" fill="#1cc88a" fill-opacity="0.66"/>
<path d="M118.24 61.812H123.352V96.66H118.24V61.812ZM144.934 85.716C145.726 85.716 146.374 85.656 146.878 85.536C147.406 85.392 147.826 85.212 148.138 84.996C148.45 84.756 148.666 84.48 148.786 84.168C148.906 83.856 148.966 83.508 148.966 83.124C148.966 82.308 148.582 81.636 147.814 81.108C147.046 80.556 145.726 79.968 143.854 79.344C143.038 79.056 142.222 78.732 141.406 78.372C140.59 77.988 139.858 77.52 139.21 76.968C138.562 76.392 138.034 75.708 137.626 74.916C137.218 74.1 137.014 73.116 137.014 71.964C137.014 70.812 137.23 69.78 137.662 68.868C138.094 67.932 138.706 67.14 139.498 66.492C140.29 65.844 141.25 65.352 142.378 65.016C143.506 64.656 144.778 64.476 146.194 64.476C147.874 64.476 149.326 64.656 150.55 65.016C151.774 65.376 152.782 65.772 153.574 66.204L151.954 70.632C151.258 70.272 150.478 69.96 149.614 69.696C148.774 69.408 147.754 69.264 146.554 69.264C145.21 69.264 144.238 69.456 143.638 69.84C143.062 70.2 142.774 70.764 142.774 71.532C142.774 71.988 142.882 72.372 143.098 72.684C143.314 72.996 143.614 73.284 143.998 73.548C144.406 73.788 144.862 74.016 145.366 74.232C145.894 74.424 146.47 74.628 147.094 74.844C148.39 75.324 149.518 75.804 150.478 76.284C151.438 76.74 152.23 77.28 152.854 77.904C153.502 78.528 153.982 79.26 154.294 80.1C154.606 80.94 154.762 81.96 154.762 83.16C154.762 85.488 153.946 87.3 152.314 88.596C150.682 89.868 148.222 90.504 144.934 90.504C143.83 90.504 142.834 90.432 141.946 90.288C141.058 90.168 140.266 90.012 139.57 89.82C138.898 89.628 138.31 89.424 137.806 89.208C137.326 88.992 136.918 88.788 136.582 88.596L138.166 84.132C138.91 84.54 139.822 84.912 140.902 85.248C142.006 85.56 143.35 85.716 144.934 85.716ZM159.083 65.052H164.699V90H159.083V65.052ZM177.278 85.716C178.07 85.716 178.718 85.656 179.222 85.536C179.75 85.392 180.17 85.212 180.482 84.996C180.794 84.756 181.01 84.48 181.13 84.168C181.25 83.856 181.31 83.508 181.31 83.124C181.31 82.308 180.926 81.636 180.158 81.108C179.39 80.556 178.07 79.968 176.198 79.344C175.382 79.056 174.566 78.732 173.75 78.372C172.934 77.988 172.202 77.52 171.554 76.968C170.906 76.392 170.378 75.708 169.97 74.916C169.562 74.1 169.358 73.116 169.358 71.964C169.358 70.812 169.574 69.78 170.006 68.868C170.438 67.932 171.05 67.14 171.842 66.492C172.634 65.844 173.594 65.352 174.722 65.016C175.85 64.656 177.122 64.476 178.538 64.476C180.218 64.476 181.67 64.656 182.894 65.016C184.118 65.376 185.126 65.772 185.918 66.204L184.298 70.632C183.602 70.272 182.822 69.96 181.958 69.696C181.118 69.408 180.098 69.264 178.898 69.264C177.554 69.264 176.582 69.456 175.982 69.84C175.406 70.2 175.118 70.764 175.118 71.532C175.118 71.988 175.226 72.372 175.442 72.684C175.658 72.996 175.958 73.284 176.342 73.548C176.75 73.788 177.206 74.016 177.71 74.232C178.238 74.424 178.814 74.628 179.438 74.844C180.734 75.324 181.862 75.804 182.822 76.284C183.782 76.74 184.574 77.28 185.198 77.904C185.846 78.528 186.326 79.26 186.638 80.1C186.95 80.94 187.106 81.96 187.106 83.16C187.106 85.488 186.29 87.3 184.658 88.596C183.026 89.868 180.566 90.504 177.278 90.504C176.174 90.504 175.178 90.432 174.29 90.288C173.402 90.168 172.61 90.012 171.914 89.82C171.242 89.628 170.654 89.424 170.15 89.208C169.67 88.992 169.262 88.788 168.926 88.596L170.51 84.132C171.254 84.54 172.166 84.912 173.246 85.248C174.35 85.56 175.694 85.716 177.278 85.716ZM209.228 65.052V69.84H201.704V90H196.088V69.84H188.564V65.052H209.228ZM212.837 90V65.052H229.685V69.768H218.453V74.664H228.425V79.272H218.453V85.284H230.513V90H212.837ZM241.293 65.052C241.725 65.844 242.217 66.828 242.769 68.004C243.345 69.156 243.933 70.416 244.533 71.784C245.157 73.128 245.769 74.508 246.369 75.924C246.969 77.34 247.533 78.672 248.061 79.92C248.589 78.672 249.153 77.34 249.753 75.924C250.353 74.508 250.953 73.128 251.553 71.784C252.177 70.416 252.765 69.156 253.317 68.004C253.893 66.828 254.397 65.844 254.829 65.052H259.941C260.181 66.708 260.397 68.568 260.589 70.632C260.805 72.672 260.985 74.808 261.129 77.04C261.297 79.248 261.441 81.468 261.561 83.7C261.705 85.932 261.825 88.032 261.921 90H256.449C256.377 87.576 256.281 84.936 256.161 82.08C256.041 79.224 255.861 76.344 255.621 73.44C255.189 74.448 254.709 75.564 254.181 76.788C253.653 78.012 253.125 79.236 252.597 80.46C252.093 81.684 251.601 82.86 251.121 83.988C250.641 85.092 250.233 86.04 249.897 86.832H245.973C245.637 86.04 245.229 85.092 244.749 83.988C244.269 82.86 243.765 81.684 243.237 80.46C242.733 79.236 242.217 78.012 241.689 76.788C241.161 75.564 240.681 74.448 240.249 73.44C240.009 76.344 239.829 79.224 239.709 82.08C239.589 84.936 239.493 87.576 239.421 90H233.949C234.045 88.032 234.153 85.932 234.273 83.7C234.417 81.468 234.561 79.248 234.705 77.04C234.873 74.808 235.053 72.672 235.245 70.632C235.461 68.568 235.689 66.708 235.929 65.052H241.293ZM275.626 65.052H281.242V90H275.626V65.052ZM303.757 90C302.149 87.144 300.409 84.324 298.537 81.54C296.665 78.756 294.673 76.128 292.561 73.656V90H287.017V65.052H291.589C292.381 65.844 293.257 66.816 294.217 67.968C295.177 69.12 296.149 70.356 297.133 71.676C298.141 72.972 299.137 74.328 300.121 75.744C301.105 77.136 302.029 78.48 302.893 79.776V65.052H308.473V90H303.757ZM314.228 90V65.052H330.932V69.768H319.844V74.988H329.708V79.704H319.844V90H314.228ZM339.334 77.508C339.334 78.732 339.478 79.836 339.766 80.82C340.078 81.804 340.51 82.656 341.062 83.376C341.638 84.072 342.334 84.612 343.15 84.996C343.966 85.38 344.902 85.572 345.958 85.572C346.99 85.572 347.914 85.38 348.73 84.996C349.57 84.612 350.266 84.072 350.818 83.376C351.394 82.656 351.826 81.804 352.114 80.82C352.426 79.836 352.582 78.732 352.582 77.508C352.582 76.284 352.426 75.18 352.114 74.196C351.826 73.188 351.394 72.336 350.818 71.64C350.266 70.92 349.57 70.368 348.73 69.984C347.914 69.6 346.99 69.408 345.958 69.408C344.902 69.408 343.966 69.612 343.15 70.02C342.334 70.404 341.638 70.956 341.062 71.676C340.51 72.372 340.078 73.224 339.766 74.232C339.478 75.216 339.334 76.308 339.334 77.508ZM358.378 77.508C358.378 79.644 358.054 81.528 357.406 83.16C356.782 84.768 355.918 86.124 354.814 87.228C353.71 88.308 352.39 89.124 350.854 89.676C349.342 90.228 347.71 90.504 345.958 90.504C344.254 90.504 342.646 90.228 341.134 89.676C339.622 89.124 338.302 88.308 337.174 87.228C336.046 86.124 335.158 84.768 334.51 83.16C333.862 81.528 333.538 79.644 333.538 77.508C333.538 75.372 333.874 73.5 334.546 71.892C335.218 70.26 336.118 68.892 337.246 67.788C338.398 66.684 339.718 65.856 341.206 65.304C342.718 64.752 344.302 64.476 345.958 64.476C347.662 64.476 349.27 64.752 350.782 65.304C352.294 65.856 353.614 66.684 354.742 67.788C355.87 68.892 356.758 70.26 357.406 71.892C358.054 73.5 358.378 75.372 358.378 77.508ZM370.368 64.764C374.112 64.764 376.98 65.436 378.972 66.78C380.964 68.1 381.96 70.164 381.96 72.972C381.96 74.724 381.552 76.152 380.736 77.256C379.944 78.336 378.792 79.188 377.28 79.812C377.784 80.436 378.312 81.156 378.864 81.972C379.416 82.764 379.956 83.604 380.484 84.492C381.036 85.356 381.564 86.268 382.068 87.228C382.572 88.164 383.04 89.088 383.472 90H377.172C376.716 89.184 376.248 88.356 375.768 87.516C375.312 86.676 374.832 85.86 374.328 85.068C373.848 84.276 373.368 83.532 372.888 82.836C372.408 82.116 371.928 81.468 371.448 80.892H368.676V90H363.06V65.412C364.284 65.172 365.544 65.004 366.84 64.908C368.16 64.812 369.336 64.764 370.368 64.764ZM370.692 69.552C370.284 69.552 369.912 69.564 369.576 69.588C369.264 69.612 368.964 69.636 368.676 69.66V76.428H370.26C372.372 76.428 373.884 76.164 374.796 75.636C375.708 75.108 376.164 74.208 376.164 72.936C376.164 71.712 375.696 70.848 374.76 70.344C373.848 69.816 372.492 69.552 370.692 69.552ZM393.695 65.052C394.127 65.844 394.619 66.828 395.171 68.004C395.747 69.156 396.335 70.416 396.935 71.784C397.559 73.128 398.171 74.508 398.771 75.924C399.371 77.34 399.935 78.672 400.463 79.92C400.991 78.672 401.555 77.34 402.155 75.924C402.755 74.508 403.355 73.128 403.955 71.784C404.579 70.416 405.167 69.156 405.719 68.004C406.295 66.828 406.799 65.844 407.231 65.052H412.343C412.583 66.708 412.799 68.568 412.991 70.632C413.207 72.672 413.387 74.808 413.531 77.04C413.699 79.248 413.843 81.468 413.963 83.7C414.107 85.932 414.227 88.032 414.323 90H408.851C408.779 87.576 408.683 84.936 408.563 82.08C408.443 79.224 408.263 76.344 408.023 73.44C407.591 74.448 407.111 75.564 406.583 76.788C406.055 78.012 405.527 79.236 404.999 80.46C404.495 81.684 404.003 82.86 403.523 83.988C403.043 85.092 402.635 86.04 402.299 86.832H398.375C398.039 86.04 397.631 85.092 397.151 83.988C396.671 82.86 396.167 81.684 395.639 80.46C395.135 79.236 394.619 78.012 394.091 76.788C393.563 75.564 393.083 74.448 392.651 73.44C392.411 76.344 392.231 79.224 392.111 82.08C391.991 84.936 391.895 87.576 391.823 90H386.351C386.447 88.032 386.555 85.932 386.675 83.7C386.819 81.468 386.963 79.248 387.107 77.04C387.275 74.808 387.455 72.672 387.647 70.632C387.863 68.568 388.091 66.708 388.331 65.052H393.695ZM436.084 90C435.82 89.136 435.52 88.248 435.184 87.336C434.872 86.424 434.56 85.512 434.248 84.6H424.528C424.216 85.512 423.892 86.424 423.556 87.336C423.244 88.248 422.956 89.136 422.692 90H416.86C417.796 87.312 418.684 84.828 419.524 82.548C420.364 80.268 421.18 78.12 421.972 76.104C422.788 74.088 423.58 72.18 424.348 70.38C425.14 68.556 425.956 66.78 426.796 65.052H432.16C432.976 66.78 433.78 68.556 434.572 70.38C435.364 72.18 436.156 74.088 436.948 76.104C437.764 78.12 438.592 80.268 439.432 82.548C440.272 84.828 441.16 87.312 442.096 90H436.084ZM429.352 70.704C429.232 71.064 429.052 71.556 428.812 72.18C428.572 72.804 428.296 73.524 427.984 74.34C427.672 75.156 427.324 76.056 426.94 77.04C426.58 78.024 426.208 79.056 425.824 80.136H432.916C432.532 79.056 432.16 78.024 431.8 77.04C431.44 76.056 431.092 75.156 430.756 74.34C430.444 73.524 430.168 72.804 429.928 72.18C429.688 71.556 429.496 71.064 429.352 70.704ZM452.797 85.716C453.589 85.716 454.237 85.656 454.741 85.536C455.269 85.392 455.689 85.212 456.001 84.996C456.313 84.756 456.529 84.48 456.649 84.168C456.769 83.856 456.829 83.508 456.829 83.124C456.829 82.308 456.445 81.636 455.677 81.108C454.909 80.556 453.589 79.968 451.717 79.344C450.901 79.056 450.085 78.732 449.269 78.372C448.453 77.988 447.721 77.52 447.073 76.968C446.425 76.392 445.897 75.708 445.489 74.916C445.081 74.1 444.877 73.116 444.877 71.964C444.877 70.812 445.093 69.78 445.525 68.868C445.957 67.932 446.569 67.14 447.361 66.492C448.153 65.844 449.113 65.352 450.241 65.016C451.369 64.656 452.641 64.476 454.057 64.476C455.737 64.476 457.189 64.656 458.413 65.016C459.637 65.376 460.645 65.772 461.437 66.204L459.817 70.632C459.121 70.272 458.341 69.96 457.477 69.696C456.637 69.408 455.617 69.264 454.417 69.264C453.073 69.264 452.101 69.456 451.501 69.84C450.925 70.2 450.637 70.764 450.637 71.532C450.637 71.988 450.745 72.372 450.961 72.684C451.177 72.996 451.477 73.284 451.861 73.548C452.269 73.788 452.725 74.016 453.229 74.232C453.757 74.424 454.333 74.628 454.957 74.844C456.253 75.324 457.381 75.804 458.341 76.284C459.301 76.74 460.093 77.28 460.717 77.904C461.365 78.528 461.845 79.26 462.157 80.1C462.469 80.94 462.625 81.96 462.625 83.16C462.625 85.488 461.809 87.3 460.177 88.596C458.545 89.868 456.085 90.504 452.797 90.504C451.693 90.504 450.697 90.432 449.809 90.288C448.921 90.168 448.129 90.012 447.433 89.82C446.761 89.628 446.173 89.424 445.669 89.208C445.189 88.992 444.781 88.788 444.445 88.596L446.029 84.132C446.773 84.54 447.685 84.912 448.765 85.248C449.869 85.56 451.213 85.716 452.797 85.716ZM466.946 65.052H472.562V90H466.946V65.052ZM125.368 105.764C129.088 105.764 131.944 106.424 133.936 107.744C135.928 109.04 136.924 111.176 136.924 114.152C136.924 117.152 135.916 119.324 133.9 120.668C131.884 121.988 129.004 122.648 125.26 122.648H123.496V131H117.88V106.412C119.104 106.172 120.4 106.004 121.768 105.908C123.136 105.812 124.336 105.764 125.368 105.764ZM125.728 110.552C125.32 110.552 124.912 110.564 124.504 110.588C124.12 110.612 123.784 110.636 123.496 110.66V117.86H125.26C127.204 117.86 128.668 117.596 129.652 117.068C130.636 116.54 131.128 115.556 131.128 114.116C131.128 113.42 130.996 112.844 130.732 112.388C130.492 111.932 130.132 111.572 129.652 111.308C129.196 111.02 128.632 110.828 127.96 110.732C127.288 110.612 126.544 110.552 125.728 110.552ZM141.048 131V106.052H157.896V110.768H146.664V115.664H156.636V120.272H146.664V126.284H158.724V131H141.048ZM179.62 131C178.012 128.144 176.272 125.324 174.4 122.54C172.528 119.756 170.536 117.128 168.424 114.656V131H162.88V106.052H167.452C168.244 106.844 169.12 107.816 170.08 108.968C171.04 110.12 172.012 111.356 172.996 112.676C174.004 113.972 175 115.328 175.984 116.744C176.968 118.136 177.892 119.48 178.756 120.776V106.052H184.336V131H179.62ZM202.259 110.372C199.643 110.372 197.747 111.104 196.571 112.568C195.419 114.008 194.843 115.988 194.843 118.508C194.843 119.732 194.987 120.848 195.275 121.856C195.563 122.84 195.995 123.692 196.571 124.412C197.147 125.132 197.867 125.696 198.731 126.104C199.595 126.488 200.603 126.68 201.755 126.68C202.379 126.68 202.907 126.668 203.339 126.644C203.795 126.62 204.191 126.572 204.527 126.5V117.824H210.143V130.172C209.471 130.436 208.391 130.712 206.903 131C205.415 131.312 203.579 131.468 201.395 131.468C199.523 131.468 197.819 131.18 196.283 130.604C194.771 130.028 193.475 129.188 192.395 128.084C191.315 126.98 190.475 125.624 189.875 124.016C189.299 122.408 189.011 120.572 189.011 118.508C189.011 116.42 189.335 114.572 189.983 112.964C190.631 111.356 191.519 110 192.647 108.896C193.775 107.768 195.095 106.916 196.607 106.34C198.143 105.764 199.775 105.476 201.503 105.476C202.679 105.476 203.735 105.56 204.671 105.728C205.631 105.872 206.447 106.052 207.119 106.268C207.815 106.46 208.379 106.664 208.811 106.88C209.267 107.096 209.591 107.264 209.783 107.384L208.163 111.884C207.395 111.476 206.507 111.128 205.499 110.84C204.515 110.528 203.435 110.372 202.259 110.372ZM232.072 131C231.808 130.136 231.508 129.248 231.172 128.336C230.86 127.424 230.548 126.512 230.236 125.6H220.516C220.204 126.512 219.88 127.424 219.544 128.336C219.232 129.248 218.944 130.136 218.68 131H212.848C213.784 128.312 214.672 125.828 215.512 123.548C216.352 121.268 217.168 119.12 217.96 117.104C218.776 115.088 219.568 113.18 220.336 111.38C221.128 109.556 221.944 107.78 222.784 106.052H228.148C228.964 107.78 229.768 109.556 230.56 111.38C231.352 113.18 232.144 115.088 232.936 117.104C233.752 119.12 234.58 121.268 235.42 123.548C236.26 125.828 237.148 128.312 238.084 131H232.072ZM225.34 111.704C225.22 112.064 225.04 112.556 224.8 113.18C224.56 113.804 224.284 114.524 223.972 115.34C223.66 116.156 223.312 117.056 222.928 118.04C222.568 119.024 222.196 120.056 221.812 121.136H228.904C228.52 120.056 228.148 119.024 227.788 118.04C227.428 117.056 227.08 116.156 226.744 115.34C226.432 114.524 226.156 113.804 225.916 113.18C225.676 112.556 225.484 112.064 225.34 111.704ZM248.622 105.764C252.366 105.764 255.234 106.436 257.226 107.78C259.218 109.1 260.214 111.164 260.214 113.972C260.214 115.724 259.806 117.152 258.99 118.256C258.198 119.336 257.046 120.188 255.534 120.812C256.038 121.436 256.566 122.156 257.118 122.972C257.67 123.764 258.21 124.604 258.738 125.492C259.29 126.356 259.818 127.268 260.322 128.228C260.826 129.164 261.294 130.088 261.726 131H255.426C254.97 130.184 254.502 129.356 254.022 128.516C253.566 127.676 253.086 126.86 252.582 126.068C252.102 125.276 251.622 124.532 251.142 123.836C250.662 123.116 250.182 122.468 249.702 121.892H246.93V131H241.314V106.412C242.538 106.172 243.798 106.004 245.094 105.908C246.414 105.812 247.59 105.764 248.622 105.764ZM248.946 110.552C248.538 110.552 248.166 110.564 247.83 110.588C247.518 110.612 247.218 110.636 246.93 110.66V117.428H248.514C250.626 117.428 252.138 117.164 253.05 116.636C253.962 116.108 254.418 115.208 254.418 113.936C254.418 112.712 253.95 111.848 253.014 111.344C252.102 110.816 250.746 110.552 248.946 110.552ZM272.129 126.716C272.921 126.716 273.569 126.656 274.073 126.536C274.601 126.392 275.021 126.212 275.333 125.996C275.645 125.756 275.861 125.48 275.981 125.168C276.101 124.856 276.161 124.508 276.161 124.124C276.161 123.308 275.777 122.636 275.009 122.108C274.241 121.556 272.921 120.968 271.049 120.344C270.233 120.056 269.417 119.732 268.601 119.372C267.785 118.988 267.053 118.52 266.405 117.968C265.757 117.392 265.229 116.708 264.821 115.916C264.413 115.1 264.209 114.116 264.209 112.964C264.209 111.812 264.425 110.78 264.857 109.868C265.289 108.932 265.901 108.14 266.693 107.492C267.485 106.844 268.445 106.352 269.573 106.016C270.701 105.656 271.973 105.476 273.389 105.476C275.069 105.476 276.521 105.656 277.745 106.016C278.969 106.376 279.977 106.772 280.769 107.204L279.149 111.632C278.453 111.272 277.673 110.96 276.809 110.696C275.969 110.408 274.949 110.264 273.749 110.264C272.405 110.264 271.433 110.456 270.833 110.84C270.257 111.2 269.969 111.764 269.969 112.532C269.969 112.988 270.077 113.372 270.293 113.684C270.509 113.996 270.809 114.284 271.193 114.548C271.601 114.788 272.057 115.016 272.561 115.232C273.089 115.424 273.665 115.628 274.289 115.844C275.585 116.324 276.713 116.804 277.673 117.284C278.633 117.74 279.425 118.28 280.049 118.904C280.697 119.528 281.177 120.26 281.489 121.1C281.801 121.94 281.957 122.96 281.957 124.16C281.957 126.488 281.141 128.3 279.509 129.596C277.877 130.868 275.417 131.504 272.129 131.504C271.025 131.504 270.029 131.432 269.141 131.288C268.253 131.168 267.461 131.012 266.765 130.82C266.093 130.628 265.505 130.424 265.001 130.208C264.521 129.992 264.113 129.788 263.777 129.596L265.361 125.132C266.105 125.54 267.017 125.912 268.097 126.248C269.201 126.56 270.545 126.716 272.129 126.716ZM286.278 106.052H291.894V131H286.278V106.052ZM305.157 105.764C308.877 105.764 311.733 106.424 313.725 107.744C315.717 109.04 316.713 111.176 316.713 114.152C316.713 117.152 315.705 119.324 313.689 120.668C311.673 121.988 308.793 122.648 305.049 122.648H303.285V131H297.669V106.412C298.893 106.172 300.189 106.004 301.557 105.908C302.925 105.812 304.125 105.764 305.157 105.764ZM305.517 110.552C305.109 110.552 304.701 110.564 304.293 110.588C303.909 110.612 303.573 110.636 303.285 110.66V117.86H305.049C306.993 117.86 308.457 117.596 309.441 117.068C310.425 116.54 310.917 115.556 310.917 114.116C310.917 113.42 310.785 112.844 310.521 112.388C310.281 111.932 309.921 111.572 309.441 111.308C308.985 111.02 308.421 110.828 307.749 110.732C307.077 110.612 306.333 110.552 305.517 110.552ZM335.08 131C334.816 130.136 334.516 129.248 334.18 128.336C333.868 127.424 333.556 126.512 333.244 125.6H323.524C323.212 126.512 322.888 127.424 322.552 128.336C322.24 129.248 321.952 130.136 321.688 131H315.856C316.792 128.312 317.68 125.828 318.52 123.548C319.36 121.268 320.176 119.12 320.968 117.104C321.784 115.088 322.576 113.18 323.344 111.38C324.136 109.556 324.952 107.78 325.792 106.052H331.156C331.972 107.78 332.776 109.556 333.568 111.38C334.36 113.18 335.152 115.088 335.944 117.104C336.76 119.12 337.588 121.268 338.428 123.548C339.268 125.828 340.156 128.312 341.092 131H335.08ZM328.348 111.704C328.228 112.064 328.048 112.556 327.808 113.18C327.568 113.804 327.292 114.524 326.98 115.34C326.668 116.156 326.32 117.056 325.936 118.04C325.576 119.024 325.204 120.056 324.82 121.136H331.912C331.528 120.056 331.156 119.024 330.796 118.04C330.436 117.056 330.088 116.156 329.752 115.34C329.44 114.524 329.164 113.804 328.924 113.18C328.684 112.556 328.492 112.064 328.348 111.704ZM361.061 131C359.453 128.144 357.713 125.324 355.841 122.54C353.969 119.756 351.977 117.128 349.865 114.656V131H344.321V106.052H348.893C349.685 106.844 350.561 107.816 351.521 108.968C352.481 110.12 353.453 111.356 354.437 112.676C355.445 113.972 356.441 115.328 357.425 116.744C358.409 118.136 359.333 119.48 360.197 120.776V106.052H365.777V131H361.061ZM386.985 126.716C387.777 126.716 388.425 126.656 388.929 126.536C389.457 126.392 389.877 126.212 390.189 125.996C390.501 125.756 390.717 125.48 390.837 125.168C390.957 124.856 391.017 124.508 391.017 124.124C391.017 123.308 390.633 122.636 389.865 122.108C389.097 121.556 387.777 120.968 385.905 120.344C385.089 120.056 384.273 119.732 383.457 119.372C382.641 118.988 381.909 118.52 381.261 117.968C380.613 117.392 380.085 116.708 379.677 115.916C379.269 115.1 379.065 114.116 379.065 112.964C379.065 111.812 379.281 110.78 379.713 109.868C380.145 108.932 380.757 108.14 381.549 107.492C382.341 106.844 383.301 106.352 384.429 106.016C385.557 105.656 386.829 105.476 388.245 105.476C389.925 105.476 391.377 105.656 392.601 106.016C393.825 106.376 394.833 106.772 395.625 107.204L394.005 111.632C393.309 111.272 392.529 110.96 391.665 110.696C390.825 110.408 389.805 110.264 388.605 110.264C387.261 110.264 386.289 110.456 385.689 110.84C385.113 111.2 384.825 111.764 384.825 112.532C384.825 112.988 384.933 113.372 385.149 113.684C385.365 113.996 385.665 114.284 386.049 114.548C386.457 114.788 386.913 115.016 387.417 115.232C387.945 115.424 388.521 115.628 389.145 115.844C390.441 116.324 391.569 116.804 392.529 117.284C393.489 117.74 394.281 118.28 394.905 118.904C395.553 119.528 396.033 120.26 396.345 121.1C396.657 121.94 396.813 122.96 396.813 124.16C396.813 126.488 395.997 128.3 394.365 129.596C392.733 130.868 390.273 131.504 386.985 131.504C385.881 131.504 384.885 131.432 383.997 131.288C383.109 131.168 382.317 131.012 381.621 130.82C380.949 130.628 380.361 130.424 379.857 130.208C379.377 129.992 378.969 129.788 378.633 129.596L380.217 125.132C380.961 125.54 381.873 125.912 382.953 126.248C384.057 126.56 385.401 126.716 386.985 126.716ZM410.89 131.504C409.138 131.504 407.626 131.264 406.354 130.784C405.082 130.28 404.026 129.596 403.186 128.732C402.37 127.844 401.758 126.8 401.35 125.6C400.966 124.376 400.774 123.032 400.774 121.568V106.052H406.39V121.1C406.39 122.108 406.498 122.972 406.714 123.692C406.954 124.388 407.266 124.964 407.65 125.42C408.058 125.852 408.538 126.164 409.09 126.356C409.666 126.548 410.29 126.644 410.962 126.644C412.33 126.644 413.434 126.224 414.274 125.384C415.138 124.544 415.57 123.116 415.57 121.1V106.052H421.186V121.568C421.186 123.032 420.982 124.376 420.574 125.6C420.166 126.824 419.542 127.88 418.702 128.768C417.862 129.632 416.794 130.304 415.498 130.784C414.202 131.264 412.666 131.504 410.89 131.504ZM433.895 105.764C437.639 105.764 440.507 106.436 442.499 107.78C444.491 109.1 445.487 111.164 445.487 113.972C445.487 115.724 445.079 117.152 444.263 118.256C443.471 119.336 442.319 120.188 440.807 120.812C441.311 121.436 441.839 122.156 442.391 122.972C442.943 123.764 443.483 124.604 444.011 125.492C444.563 126.356 445.091 127.268 445.595 128.228C446.099 129.164 446.567 130.088 446.999 131H440.699C440.243 130.184 439.775 129.356 439.295 128.516C438.839 127.676 438.359 126.86 437.855 126.068C437.375 125.276 436.895 124.532 436.415 123.836C435.935 123.116 435.455 122.468 434.975 121.892H432.203V131H426.587V106.412C427.811 106.172 429.071 106.004 430.367 105.908C431.687 105.812 432.863 105.764 433.895 105.764ZM434.219 110.552C433.811 110.552 433.439 110.564 433.103 110.588C432.791 110.612 432.491 110.636 432.203 110.66V117.428H433.787C435.899 117.428 437.411 117.164 438.323 116.636C439.235 116.108 439.691 115.208 439.691 113.936C439.691 112.712 439.223 111.848 438.287 111.344C437.375 110.816 436.019 110.552 434.219 110.552ZM468.428 131C468.164 130.136 467.864 129.248 467.528 128.336C467.216 127.424 466.904 126.512 466.592 125.6H456.872C456.56 126.512 456.236 127.424 455.9 128.336C455.588 129.248 455.3 130.136 455.036 131H449.204C450.14 128.312 451.028 125.828 451.868 123.548C452.708 121.268 453.524 119.12 454.316 117.104C455.132 115.088 455.924 113.18 456.692 111.38C457.484 109.556 458.3 107.78 459.14 106.052H464.504C465.32 107.78 466.124 109.556 466.916 111.38C467.708 113.18 468.5 115.088 469.292 117.104C470.108 119.12 470.936 121.268 471.776 123.548C472.616 125.828 473.504 128.312 474.44 131H468.428ZM461.696 111.704C461.576 112.064 461.396 112.556 461.156 113.18C460.916 113.804 460.64 114.524 460.328 115.34C460.016 116.156 459.668 117.056 459.284 118.04C458.924 119.024 458.552 120.056 458.168 121.136H465.26C464.876 120.056 464.504 119.024 464.144 118.04C463.784 117.056 463.436 116.156 463.1 115.34C462.788 114.524 462.512 113.804 462.272 113.18C462.032 112.556 461.84 112.064 461.696 111.704ZM493.22 106.052V110.84H485.696V131H480.08V110.84H472.556V106.052H493.22Z" fill="#1A1926"/>
<path d="M103 506C103 479.49 81.5097 458 55 458V458V600H103V506Z" fill="#F0EFFF"/>
<defs>
<linearGradient id="paint0_linear" x1="611.001" y1="553.17" x2="611.001" y2="259.631" gradientUnits="userSpaceOnUse">
<stop stop-color="#808080" stop-opacity="0.25"/>
<stop offset="0.54" stop-color="#808080" stop-opacity="0.12"/>
<stop offset="1" stop-color="#808080" stop-opacity="0.1"/>
</linearGradient>
<clipPath id="clip0">
<rect width="488" height="394" fill="white" transform="translate(214 173)"/>
</clipPath>
</defs>
</svg>